<?xml version="1.0" encoding="UTF-8" standalone="no"?>
<!-- Created with Inkscape (http://www.inkscape.org/) -->

<svg
   xmlns:dc="http://purl.org/dc/elements/1.1/"
   xmlns:cc="http://creativecommons.org/ns#"
   xmlns:rdf="http://www.w3.org/1999/02/22-rdf-syntax-ns#"
   xmlns:svg="http://www.w3.org/2000/svg"
   xmlns="http://www.w3.org/2000/svg"
   xmlns:sodipodi="http://sodipodi.sourceforge.net/DTD/sodipodi-0.dtd"
   xmlns:inkscape="http://www.inkscape.org/namespaces/inkscape"
   width="210mm"
   height="297mm"
   viewBox="0 0 744.09448819 1052.3622047"
   id="svg2"
   version="1.1"
   inkscape:version="0.91 r13725"
   sodipodi:docname="CMJ_logo_redonly.svg">
  <defs
     id="defs4" />
  <sodipodi:namedview
     id="base"
     pagecolor="#ffffff"
     bordercolor="#666666"
     borderopacity="1.0"
     inkscape:pageopacity="0.0"
     inkscape:pageshadow="2"
     inkscape:zoom="0.98994949"
     inkscape:cx="561.83547"
     inkscape:cy="455.7046"
     inkscape:document-units="px"
     inkscape:current-layer="layer1"
     showgrid="false"
     inkscape:window-width="1680"
     inkscape:window-height="980"
     inkscape:window-x="57"
     inkscape:window-y="0"
     inkscape:window-maximized="0" />
  <metadata
     id="metadata7">
    <rdf:RDF>
      <cc:Work
         rdf:about="">
        <dc:format>image/svg+xml</dc:format>
        <dc:type
           rdf:resource="http://purl.org/dc/dcmitype/StillImage" />
        <dc:title></dc:title>
      </cc:Work>
    </rdf:RDF>
  </metadata>
  <g
     inkscape:label="Layer 1"
     inkscape:groupmode="layer"
     id="layer1">
    <g
       id="g3521"
       transform="matrix(0.60266024,0,0,0.60266024,399.43613,60.531258)">
      <path
         style="fill:#e05b59"
         d="m -421.64472,1143.5375 c -5.49572,-0.4422 -15.07285,-1.8081 -18.32346,-2.6135 -23.46696,-5.8143 -42.84696,-14.6168 -62.68061,-28.4699 -6.9723,-4.8699 -11.9661,-9.4745 -22.43452,-20.6861 -34.35564,-36.7948 -52.53359,-76.6394 -57.528,-126.09667 -0.70553,-6.98643 -0.82324,-12.25152 -0.59971,-26.82134 0.30908,-20.14489 0.77361,-24.93606 3.7401,-38.57642 2.77797,-12.77363 8.92905,-29.93237 15.25446,-42.5532 16.83554,-33.5913 45.72175,-61.48027 76.70594,-74.05787 2.33278,-0.94695 4.47092,-2.08557 4.75139,-2.53027 0.37258,-0.59062 -0.24078,-2.3451 -2.27569,-6.50976 -1.53216,-3.13567 -2.71429,-6.20143 -2.62695,-6.8128 0.12085,-0.84593 1.79553,-1.9077 7.00732,-4.44276 3.76668,-1.83214 6.71218,-3.46751 6.54555,-3.63416 -0.40481,-0.40481 -5.05571,0.97021 -13.12853,3.88138 -22.45192,8.09647 -44.17838,20.16576 -55.0465,30.57889 -3.97051,3.80427 -4.39488,4.07406 -5.1776,3.29137 -0.46889,-0.46891 -0.97308,-1.37361 -1.12036,-2.01044 -0.71951,-3.11064 -1.85827,-12.388 -1.85827,-15.13895 0,-3.9138 1.65249,-13.10491 3.16798,-17.62028 4.62648,-13.78467 17.01451,-27.42833 34.80677,-38.33481 6.55186,-4.01621 11.17189,-6.07415 18.14427,-8.08216 6.34626,-1.82767 7.25181,-2.32753 8.46423,-4.67209 1.10599,-2.13872 3.70488,-9.7677 4.39805,-12.91033 0.85905,-3.89465 2.06841,-13.10952 2.43958,-18.58903 0.61769,-9.11795 1.44028,-15.4195 2.45154,-18.78031 2.43176,-8.08168 7.02374,-15.09779 12.35464,-18.87682 10.41258,-7.38137 31.41713,-14.16199 51.21649,-16.53355 6.15983,-0.73782 10.35319,-0.85422 22.30683,-0.61922 16.97634,0.33373 23.94277,1.18958 37.75427,4.63821 19.83193,4.95189 37.92436,13.34713 45.3161,21.02755 5.76984,5.99518 8.33413,12.6158 10.00472,25.83081 2.85396,22.57579 5.33804,32.97553 9.86187,41.2873 1.48478,2.72801 2.50855,3.33824 8.44701,5.03487 8.75588,2.50156 19.37424,7.5838 29.01519,13.88746 6.93599,4.53504 16.89504,14.33469 21.54964,21.20473 9.56299,14.11465 12.84347,25.99026 11.34397,41.06621 -0.77484,7.79029 -1.60816,11.76182 -3.4531,16.45726 -3.40259,8.65971 -9.12181,11.75998 -21.69418,11.75998 -19.16556,0 -56.63109,-14.3995 -86.15524,-33.1129 -19.05214,-12.07589 -32.48116,-26.25169 -36.15755,-38.1683 -1.17482,-3.80796 -0.76882,-5.3645 2.99128,-11.46844 9.91889,-16.10176 26.21533,-24.33615 50.3427,-25.43755 4.93076,-0.22509 7.1628,-0.52553 7.34027,-0.98803 0.14026,-0.36553 -0.69325,-3.9736 -1.85225,-8.01794 -2.61977,-9.14171 -3.46301,-13.70416 -4.89284,-26.47351 -1.83907,-16.42403 -2.48057,-18.62512 -6.76243,-23.20277 -8.33408,-8.9098 -24.69938,-15.69331 -49.54464,-20.5365 -11.66885,-2.27466 -23.77632,-3.02058 -35.90066,-2.21178 -5.17288,0.34508 -10.73657,0.85696 -12.36379,1.13751 -1.62721,0.28055 -4.39257,0.74955 -6.14528,1.04221 -15.73696,2.62781 -31.22781,9.01516 -37.47442,15.45183 -4.13864,4.2646 -4.39837,5.30393 -6.34738,25.39836 -1.32325,13.64263 -3.06727,22.7536 -5.6135,29.32512 -0.53354,1.37709 -0.84222,2.6317 -0.6859,2.78801 0.15632,0.15633 2.89348,0.0165 6.08257,-0.31084 3.3609,-0.34492 8.58918,-0.44941 12.4373,-0.24858 10.54896,0.55054 16.69409,2.08102 24.6792,6.14649 8.92743,4.54523 15.15689,10.46658 20.73113,19.70574 3.34278,5.54054 3.51423,7.64885 0.88779,10.91591 -1.85442,2.30674 -6.66903,6.39467 -10.71342,9.09644 -2.42643,1.62094 -15.59843,8.44664 -20.44791,10.59609 -1.46059,0.64736 -4.44812,1.96562 -6.63895,2.92945 -7.91376,3.48153 -7.79573,4.03759 0.66217,3.11939 9.7444,-1.05787 21.34675,-1.31409 28.54918,-0.63046 7.16688,0.68026 19.96307,3.07063 26.16018,4.88682 2.11631,0.62023 4.68433,1.2398 5.70672,1.37684 1.81851,0.24374 1.83363,0.23063 0.6953,-0.6036 -0.64001,-0.46901 -2.69574,-1.54016 -4.56835,-2.38034 -3.88169,-1.7416 -4.51421,-2.66692 -2.86031,-4.18422 3.24405,-2.97608 17.06627,-8.08093 21.88048,-8.08093 l 2.73554,0 3.622,4.85032 c 7.02874,9.41235 17.7268,19.17564 30.01352,27.391 24.7295,16.53507 60.6734,30.89334 84.95496,33.93639 7.55563,0.94689 12.35071,0.68192 15.87553,-0.87728 1.28749,-0.56952 2.88441,-1.03549 3.54871,-1.03549 1.70331,0 7.77905,6.65872 12.39523,13.58459 5.80885,8.71528 14.03014,26.21585 17.32116,36.87136 3.11384,10.08185 5.6521,19.33447 6.99363,25.49353 1.21812,5.59245 1.90505,9.4472 3.97518,22.30686 0.94577,5.8751 0.94958,34.5384 0.006,42.75478 -1.82536,15.88922 -3.11541,23.29472 -5.96763,34.25694 -10.14555,38.9934 -32.69312,68.8899 -69.99716,92.8113 -6.20716,3.9805 -25.21176,13.6385 -32.51359,16.5234 -2.16046,0.8535 -6.31814,2.5545 -9.23927,3.78 -7.74515,3.2491 -19.14437,6.9766 -20.15253,6.5897 -1.39303,-0.5345 -0.75667,-1.3315 3.76722,-4.718 9.605,-7.19 17.78397,-14.4672 25.07124,-22.3068 19.29135,-20.7536 31.31113,-48.4973 33.82501,-78.0739 0.4869,-5.7285 -0.28301,-4.6773 -2.13932,2.9211 -9.75079,39.9122 -30.03462,71.7576 -60.02288,94.2353 -17.90886,13.4236 -34.03573,20.504 -57.64809,25.3101 -7.66814,1.5608 -9.06934,1.6816 -21.22253,1.8302 -7.15679,0.087 -15.40235,-0.033 -18.3235,-0.2682 z m 26.82134,-18.8489 c 15.70365,-1.5417 29.47616,-5.629 42.48922,-12.6094 48.00565,-25.7512 76.33081,-82.6781 72.77426,-146.25915 -1.539,-27.51279 -7.70842,-51.51518 -19.37315,-75.37211 -18.70438,-38.25452 -49.16294,-67.8525 -83.76009,-81.3935 -16.18504,-6.33469 -31.71511,-9.02807 -48.93662,-8.4871 -18.30585,0.57504 -35.16556,5.14693 -50.56207,13.71108 -39.96619,22.23075 -65.86743,65.35293 -70.93349,118.09488 -0.72768,7.57569 -0.71497,27.0596 0.0227,34.82079 3.63211,38.21501 17.67235,73.46141 40.83243,102.50521 5.42336,6.8012 16.67356,18.2661 23.17384,23.6162 22.24906,18.312 46.27013,28.701 72.49723,31.3545 8.94911,0.9054 12.70978,0.9086 21.77574,0.019 z m -29.76564,-7.37 c -2.20359,-0.6525 -4.83262,-1.6675 -5.84226,-2.2556 -1.68517,-0.9814 -1.84912,-1.3018 -1.99889,-3.9065 -0.0898,-1.5606 0.0795,-3.0801 0.37614,-3.3767 0.36502,-0.3651 1.79099,0.094 4.41211,1.4189 4.99405,2.5252 8.8439,3.0643 10.44554,1.4627 0.62064,-0.6206 1.12839,-1.5617 1.12839,-2.0913 0,-1.4892 -2.55959,-3.5017 -6.57948,-5.1733 -7.28283,-3.0282 -10.04934,-6.3253 -10.0577,-11.9867 -0.005,-3.3653 1.12367,-5.7871 3.53289,-7.5807 1.24289,-0.9253 2.24875,-1.1159 5.84229,-1.1073 4.7765,0.012 11.35087,1.7035 12.63594,3.2519 0.74796,0.9013 1.02866,5.6489 0.37276,6.3048 -0.19864,0.1986 -1.9199,-0.2624 -3.82507,-1.0246 -6.14802,-2.4596 -9.86356,-2.3674 -10.69919,0.2655 -0.54406,1.7141 1.38124,3.318 6.55899,5.4642 7.87828,3.2655 10.18531,6.0077 10.18531,12.1065 0,4.4014 -1.18238,6.6943 -4.26799,8.2765 -3.00708,1.542 -6.90142,1.5266 -12.21978,-0.048 z m 0.0766,-41.9098 c -0.40579,-1.0743 -1.57344,-6.2968 -6.44207,-28.813 -1.47497,-6.8212 -2.04493,-9.432 -6.37703,-29.2113 -1.21559,-5.5502 -2.78539,-12.8397 -3.48844,-16.199 -1.43458,-6.85488 -2.17704,-9.029 -3.0833,-9.029 -0.57554,0 -8.87243,3.14846 -32.32156,12.2652 -9.04237,3.5155 -11.54375,4.211 -11.54375,3.2096 0,-0.2524 5.45016,-6.0481 12.11144,-12.87959 20.00251,-20.5135 22.6766,-23.3781 22.6766,-24.29218 0,-0.98521 -6.88085,-3.85633 -37.97472,-15.84527 -4.23564,-1.63316 -8.04133,-3.28504 -8.45706,-3.6708 -1.32599,-1.23043 1.158,-1.63255 14.03375,-2.27188 17.32208,-0.86012 31.74393,-1.74103 32.59149,-1.99071 0.43874,-0.12927 0.63198,-0.69757 0.48992,-1.44082 -0.12905,-0.67502 -5.53386,-9.82753 -12.01077,-20.3389 -6.47686,-10.51137 -11.7761,-19.39668 -11.7761,-19.74512 0,-0.34845 0.35035,-0.63354 0.77858,-0.63354 0.42822,0 7.77577,4.69807 16.32785,10.44016 8.55208,5.74209 15.94231,10.54295 16.42272,10.66858 0.48038,0.12563 1.04505,-0.0492 1.25478,-0.3886 0.36239,-0.58632 1.88727,-7.18605 4.78749,-20.72014 1.42252,-6.63825 2.07136,-9.61368 6.37014,-29.21133 1.56984,-7.15678 3.34156,-15.31195 3.93713,-18.1226 1.75796,-8.29619 2.56179,-9.59564 3.6561,-5.91037 0.32529,1.09542 2.1716,9.28124 4.10296,18.1907 5.28958,24.40145 5.95776,27.47366 7.10395,32.66358 1.54426,6.99257 6.41564,29.47875 6.78854,31.3358 0.43827,2.18269 1.14452,3.45224 1.92047,3.45224 0.35781,0 4.11369,-1.34043 8.34638,-2.97874 4.23269,-1.63831 9.72733,-3.75746 12.21031,-4.70925 2.48295,-0.9518 9.7725,-3.75861 16.19902,-6.23736 13.00749,-5.01709 14.60566,-5.51916 14.60566,-4.58838 0,0.6226 -3.27227,4.05011 -23.63463,24.75586 -10.61735,10.7964 -12.034,12.50145 -11.10955,13.37098 0.26798,0.25202 3.59426,1.67105 7.39174,3.15332 24.09643,9.40558 38.33101,15.11183 38.9267,15.6046 1.71656,1.42003 -0.12795,1.61165 -29.63216,3.07851 -14.94118,0.74281 -17.19364,1.0297 -17.42271,2.21911 -0.096,0.49828 5.21891,9.67676 11.81079,20.39664 6.59191,10.7198 11.98527,19.8107 11.98527,20.2019 0,0.3912 -0.27234,0.7113 -0.60526,0.7113 -0.33288,0 -9.5342,-5.9751 -20.44737,-13.2779 -10.91318,-7.3028 -20.06727,-13.27789 -20.34246,-13.27789 -0.86044,0 -1.08416,0.76216 -3.54419,12.07369 -1.31933,6.0664 -2.87198,13.1808 -3.4503,15.8099 -0.57835,2.629 -1.50965,6.931 -2.06959,9.56 -3.87168,18.1782 -9.01654,41.1351 -9.49249,42.3565 -0.69087,1.7728 -1.01468,1.8264 -1.60427,0.2655 z m 1.0234,-99.56772 c 4.94089,-3.4356 6.30091,-11.89083 2.82645,-17.57154 -2.69754,-4.41052 -7.91513,-6.02282 -11.62469,-3.59221 -2.11789,1.38769 -1.81994,1.93535 1.43988,2.64661 1.97084,0.43006 4.53795,2.71353 5.77372,5.13579 1.39489,2.73421 1.4,8.4022 0.0104,11.46289 -1.33391,2.93793 -0.81002,3.57636 1.5743,1.91846 z m 112.58184,31.58152 c -3.06719,-0.8787 -7.19481,-2.0688 -9.17248,-2.6446 -1.97768,-0.5758 -3.7931,-1.4405 -4.03427,-1.9214 -0.24118,-0.4809 -0.25614,-3.02547 -0.0332,-5.6545 1.50983,-17.80977 2.1256,-24.18053 2.40841,-24.9175 0.18245,-0.47548 0.93607,-0.84158 1.73235,-0.84158 2.23288,0 19.79302,5.10517 20.3333,5.91141 0.54959,0.82015 0.11519,4.72593 -0.60594,5.448 -0.27423,0.27461 -2.86943,-0.19346 -6.21342,-1.12061 -6.50641,-1.80403 -7.60619,-1.64962 -7.59325,1.06608 0.004,0.93911 0.18372,1.97717 0.39833,2.30681 0.21462,0.32964 2.25973,1.11042 4.5447,1.73502 7.17281,1.96074 7.7956,2.33678 7.7956,4.70705 0,3.88584 -0.52088,4.06453 -7.00374,2.40216 -3.12177,-0.80048 -5.8409,-1.29048 -6.04251,-1.08884 -0.64345,0.64343 -1.13289,4.43821 -0.71732,5.56159 0.22055,0.59622 1.07731,1.24816 1.90391,1.44878 0.8266,0.20063 3.83318,1.07803 6.68129,1.94993 l 5.17837,1.5852 0,2.0582 c 0,4.3696 -0.7612,4.5296 -9.56007,2.0088 z M -512.417,962.93208 c -1.72605,-0.54464 -3.48477,-1.33673 -3.90824,-1.76023 -0.69285,-0.69282 -1.68063,-4.69654 -4.14877,-16.81573 -1.05628,-5.18661 -1.26252,-5.84226 -1.83799,-5.84226 -0.54489,0 -1.37508,2.82502 -3.48203,11.8488 -0.93385,3.99958 -1.76725,6.43339 -2.30022,6.71729 -1.09878,0.58541 -7.92932,-1.55442 -8.55575,-2.68029 -0.25837,-0.46439 -1.07901,-3.81041 -1.82366,-7.43561 -4.91269,-23.91706 -5.1963,-25.52401 -4.60851,-26.11181 0.43888,-0.43886 1.35729,-0.35432 3.50475,0.32261 1.60056,0.50453 3.04977,1.14335 3.2205,1.41962 0.17076,0.27627 1.13019,4.54072 2.13212,9.47656 2.01586,9.93099 2.69142,12.17981 3.43539,11.43584 0.27013,-0.27014 1.1237,-3.1173 1.89684,-6.3271 0.77311,-3.20976 1.69176,-6.91147 2.04143,-8.22597 l 0.63573,-2.39001 2.57944,0.0934 c 3.17958,0.11508 5.17803,1.4853 5.74785,3.9409 0.23077,0.99441 1.20122,5.51251 2.15658,10.04027 2.12596,10.07545 2.72502,10.50266 4.46868,3.18671 2.23172,-9.36376 2.91985,-11.62426 3.62041,-11.89306 0.38389,-0.14732 1.96529,0.13809 3.51423,0.63421 2.09881,0.67229 2.85696,1.18732 2.97608,2.0218 0.0879,0.61585 -0.80264,5.2764 -1.97901,10.35676 -3.71737,16.05422 -4.49131,18.78569 -5.35089,18.88532 -0.43817,0.0508 -2.20891,-0.35331 -3.93496,-0.89798 z m 104.32069,-114.25281 c -1.60391,-0.26568 -3.2344,-0.80124 -3.6233,-1.19014 -0.38889,-0.3889 -3.02016,-5.34188 -5.84722,-11.00662 -2.82707,-5.66473 -5.3791,-10.29952 -5.67121,-10.29952 -0.3282,0 -0.58681,3.53646 -0.67686,9.2557 -0.0861,5.46927 -0.37416,9.53098 -0.7042,9.92861 -0.70251,0.84649 -5.53455,0.39941 -7.24957,-0.67075 l -1.19499,-0.74568 0.008,-16.31955 c 0.004,-8.97575 0.21831,-16.65144 0.47519,-17.05708 0.39308,-0.62071 1.1468,-0.63178 4.75911,-0.0698 2.36062,0.36723 4.59655,1.01867 4.96873,1.44765 0.37218,0.42898 3.06673,5.46589 5.98784,11.19314 2.92115,5.72725 5.55019,10.42674 5.8423,10.4433 0.32672,0.0186 0.63331,-3.70788 0.79666,-9.68322 0.19313,-7.06421 0.45034,-9.82723 0.94304,-10.13093 0.98763,-0.60878 6.98487,0.60176 7.57057,1.52811 0.54435,0.86097 0.72426,31.75943 0.19299,33.14395 -0.36044,0.93926 -1.96896,0.99621 -6.57718,0.23287 z m 148.1762,-99.77355 c 1.25462,-1.25461 1.43565,-4.59745 0.3308,-6.10842 -0.70628,-0.96589 -0.788,-0.95269 -2.37653,0.38396 -2.36709,1.99177 -5.02892,2.72645 -8.43005,2.32672 -3.1977,-0.37583 -3.5161,0.16174 -1.14455,1.93236 3.43266,2.56286 9.72888,3.35684 11.62033,1.46538 z m 166.78915,359.06938 c -0.367106,-0.686 -0.550077,-16.2098 -0.550077,-46.6737 0,-37.7324 0.124653,-45.7492 0.718917,-46.2424 0.530375,-0.4402 71.969306,-0.5617 272.32934,-0.4634 l 271.61045,0.1333 0,47.0037 0,47.0037 -271.77929,0.1333 c -268.27417,0.1316 -271.786381,0.1201 -272.32934,-0.8945 z m 131.962701,-17.4398 c 1.228523,-0.8591 2.797116,-2.7108 3.718285,-4.3893 l 1.593345,-2.9032 0.165282,-17.6562 0.165232,-17.6562 -1.372299,-0.6252 c -0.941879,-0.4292 -1.993219,-0.4719 -3.351921,-0.1362 l -1.979677,0.4891 -0.265558,17.2859 c -0.234805,15.2858 -0.37311,17.4499 -1.195008,18.7031 -1.664622,2.5381 -3.426649,2.93 -7.630904,1.6972 -0.888875,-0.2606 -1.370278,0.068 -2.295323,1.5642 -0.643764,1.0417 -1.093669,2.4288 -0.999718,3.0826 0.415226,2.8889 9.566131,3.2593 13.448264,0.5442 z m 289.401459,1.1619 c 0.49011,-1.2772 0.36902,-42.8778 -0.12704,-43.6596 -0.61642,-0.9715 -3.97577,-1.4035 -5.31997,-0.6841 -1.11471,0.5966 -1.1351,0.8557 -1.1351,14.4145 0,12.2739 -0.0961,13.8439 -0.86599,14.1392 -0.92047,0.3533 -1.66425,-0.3718 -20.5336,-20.0169 -9.43256,-9.8203 -9.98874,-10.3033 -10.73867,-9.3257 -0.67027,0.8737 -0.79089,4.2907 -0.79089,22.4016 0,23.6428 -0.0886,23.04 3.38868,23.04 3.52984,0 3.49245,0.1553 3.64424,-15.1368 0.13273,-13.3637 0.17139,-13.8128 1.19937,-13.9286 0.77261,-0.087 4.89964,3.9261 15.13678,14.7189 7.74101,8.1611 14.46726,14.8472 14.94718,14.858 0.47997,0.011 1.01772,-0.3585 1.19501,-0.8205 z m -243.173986,-0.4366 c 0.560806,-0.4101 1.980794,-2.7404 3.155411,-5.1784 l 2.135771,-4.4328 9.334246,-0.1446 c 10.708928,-0.166 10.127938,-0.4007 12.188088,4.9247 1.56641,4.0491 3.14011,5.5793 5.72696,5.5686 1.07912,0 2.31354,-0.2305 2.7431,-0.5021 0.96276,-0.6089 0.51338,-1.9931 -3.25308,-10.0203 -1.41547,-3.0168 -2.57357,-5.5623 -2.57357,-5.6568 0,-0.094 -0.92579,-2.1673 -2.05733,-4.6062 -1.13154,-2.439 -2.83913,-6.227 -3.79466,-8.4179 -5.62164,-12.8893 -7.45128,-16.5813 -8.36187,-16.8735 -0.413639,-0.1326 -1.559467,1.6842 -2.99183,4.7442 -4.163731,8.8949 -6.259777,13.3977 -7.871235,16.9094 -0.871348,1.8987 -2.42486,5.2448 -3.452248,7.4356 -1.027442,2.1909 -2.58122,5.5369 -3.452835,7.4356 -0.871611,1.8988 -2.03879,4.3934 -2.593754,5.5437 -1.179023,2.4439 -1.259218,3.2958 -0.345066,3.6646 1.364544,0.5507 4.479322,0.3261 5.463902,-0.3938 z m 9.132845,-17.4466 c -0.36413,-0.9489 5.305153,-12.7502 6.011961,-12.5146 0.7033,0.2344 1.66643,1.8949 3.17782,5.4788 0.61593,1.4606 1.48027,3.4491 1.92073,4.4189 1.3605,2.9956 0.89594,3.2823 -5.318591,3.2823 -3.945869,0 -5.609907,-0.1912 -5.79192,-0.6654 z m 68.690461,17.6424 c 0.94364,-0.505 1.02798,-1.1866 1.03546,-8.3651 0.005,-4.2984 0.19742,-8.1133 0.42877,-8.4776 0.23136,-0.3644 2.37855,-0.9393 4.7716,-1.2778 5.17125,-0.7313 8.51335,-2.6366 10.91909,-6.2247 1.40103,-2.0896 1.56004,-2.7635 1.58501,-6.717 0.0244,-3.8979 -0.13236,-4.6364 -1.38951,-6.5361 -2.04107,-3.0842 -4.00323,-4.7359 -6.74644,-5.6787 -3.21022,-1.1034 -13.74308,-1.6838 -15.31263,-0.8438 l -1.16851,0.6254 0,21.3852 c 0,15.9249 0.16274,21.548 0.63734,22.0226 0.78244,0.7825 3.84575,0.8337 5.23982,0.088 z m 1.64285,-24.5765 c -0.4515,-0.544 -0.6051,-2.6355 -0.50068,-6.8167 l 0.15073,-6.0318 2.92113,-0.1474 c 3.35171,-0.1691 6.23152,1.0646 7.29503,3.1252 0.83735,1.6225 0.85467,4.803 0.0361,6.5999 -1.1931,2.6187 -8.45313,5.0168 -9.90212,3.2708 z m 53.10387,23.9313 c 0.58221,-0.6573 1.70441,-2.6581 2.4938,-4.4463 2.3317,-5.2824 1.60355,-4.981 12.03513,-4.981 6.69375,0 9.3079,0.179 9.69652,0.6639 0.29259,0.3651 1.30123,2.4564 2.24136,4.6472 0.94012,2.1909 2.10422,4.3011 2.5869,4.6894 0.85918,0.6913 5.55658,0.6343 6.26689,-0.076 0.37513,-0.3752 -0.4677,-2.557 -3.52618,-9.1279 -1.22369,-2.629 -2.77911,-6.0945 -3.45649,-7.7011 -0.67739,-1.6067 -2.2309,-5.0722 -3.45226,-7.7012 -1.22135,-2.629 -2.78824,-6.1275 -3.48199,-7.7743 -2.70279,-6.4163 -6.05535,-13.2047 -6.52124,-13.2047 -0.26896,0 -0.728,0.2987 -1.02006,0.6638 -0.90715,1.1341 -20.3125,43.2959 -20.3125,44.1328 0,1.8016 4.90012,1.9652 6.45012,0.2154 z m 8.65017,-17.0321 c -0.36758,-0.9579 5.1054,-12.5776 5.92422,-12.5776 0.36105,0 1.13712,1.0158 1.72459,2.2572 3.0221,6.3865 4.34266,9.7107 4.1044,10.3317 -0.38102,0.9929 -11.37192,0.9824 -11.75321,-0.011 z M 110.4,990.21142 c -0.52411,-0.21146 -0.6639,-10.15069 -0.6639,-47.19721 l 0,-46.92933 1.18041,-0.82679 c 0.83119,-0.58218 2.4461,-0.82679 5.45853,-0.82679 4.92562,0 6.63459,0.79302 6.64622,3.08403 0.0101,1.97552 0.553,3.82047 1.12443,3.82047 0.26215,0 1.72803,-1.0174 3.25748,-2.26089 5.87159,-4.77369 13.71919,-6.82473 21.93135,-5.73189 2.44738,0.32568 5.4205,0.93465 6.60697,1.35325 2.7338,0.96456 7.06638,3.83865 9.89085,6.56129 1.88668,1.81864 5.51313,6.59365 5.51313,7.25919 0,0.12275 0.58795,1.50856 1.30655,3.07957 3.20602,7.00905 4.18843,19.68393 2.1892,28.24534 -3.73331,15.98776 -15.51664,25.96928 -30.58263,25.9061 -6.1211,-0.0256 -9.78792,-1.179 -14.98467,-4.71315 -1.96114,-1.33373 -3.81341,-2.27183 -4.11614,-2.08475 -0.35856,0.22158 -0.55045,5.50058 -0.55045,15.14215 0,12.74814 -0.11578,14.91776 -0.8346,15.63655 -0.66485,0.66487 -2.04224,0.82609 -6.77171,0.7927 -3.26541,-0.0231 -6.23588,-0.16248 -6.60102,-0.30984 z m 39.75121,-39.08355 c 4.19858,-2.13035 7.71918,-6.50294 9.58334,-11.90239 1.05033,-3.04234 1.25242,-4.66851 1.24329,-10.00611 -0.009,-5.43594 -0.20459,-6.90782 -1.32779,-10.00668 -3.62757,-10.00832 -12.62997,-15.05581 -21.99624,-12.33295 -7.01577,2.03953 -11.01974,6.79726 -12.78576,15.19264 -2.69402,12.80681 1.75757,25.06802 10.62714,29.27078 2.6312,1.24678 3.88984,1.51008 7.22041,1.5104 3.49946,0 4.48436,-0.22821 7.43561,-1.72569 z m 40.95175,38.79796 c -0.48597,-0.48596 -0.63734,-11.64914 -0.63734,-47.00372 0,-54.25817 -0.81138,-48.49081 6.82218,-48.49081 5.49943,0 6.25197,0.48989 6.79073,4.42052 0.18727,1.36619 0.55401,2.48398 0.81499,2.48398 0.26105,0 1.70818,-0.97509 3.21586,-2.16686 4.11975,-3.25646 7.26039,-4.63101 12.84019,-5.61968 4.65575,-0.82494 5.45158,-0.82964 10.16113,-0.06 13.29084,2.17203 21.75724,11.10518 24.71391,26.07626 1.32747,6.72166 1.3066,12.89669 -0.066,19.52052 -1.67928,8.10383 -3.7279,12.13049 -8.97989,17.65045 -5.70439,5.99545 -12.90179,9.03034 -21.52509,9.07637 -5.70763,0.0306 -9.71872,-1.24819 -15.2565,-4.86349 -1.96459,-1.28258 -3.81686,-2.1806 -4.11614,-1.99564 -0.3508,0.21683 -0.54418,5.6971 -0.54418,15.42306 0,14.37226 -0.0489,15.1128 -1.02734,15.63655 -1.47007,0.78675 -12.40472,0.71428 -13.20655,-0.0875 z m 39.48332,-38.59042 c 7.21876,-3.41507 11.39752,-11.42629 11.39752,-21.85051 0,-8.10338 -2.10837,-13.88349 -6.75185,-18.51036 -2.52769,-2.51862 -3.64611,-3.22228 -6.29531,-3.96073 -5.14858,-1.43512 -9.79101,-0.97971 -14.42132,1.41473 -4.20272,2.17331 -7.76677,7.97824 -8.94069,14.56196 -0.95102,5.33348 -0.94608,8.23817 0.0218,12.83861 1.54097,7.32543 5.25474,12.79511 10.45043,15.3914 2.78862,1.39349 3.86105,1.63341 7.30013,1.63305 3.33152,-3.2e-4 4.5882,-0.26387 7.23947,-1.51815 z M 53.172331,965.79055 c -3.029587,-0.4583 -8.388808,-2.45582 -10.609133,-3.95431 -3.107557,-2.09725 -6.195724,-5.58259 -7.723371,-8.71668 -1.141157,-2.34121 -1.295284,-3.37927 -1.301659,-8.76863 -0.0069,-5.7249 0.09236,-6.31003 1.562012,-9.21471 1.749651,-3.45811 5.243432,-6.87938 9.444341,-9.24839 5.65197,-3.18728 16.04069,-5.4268 25.190586,-5.43038 6.723866,-0.003 7.901772,-1.25867 6.210914,-6.62279 -1.668285,-5.29239 -6.501487,-8.24994 -13.481989,-8.24994 -3.380603,0 -10.057147,1.85274 -14.148859,3.92631 -1.503003,0.76166 -3.214521,1.38485 -3.803368,1.38485 -2.217353,0 -6.250642,-6.42891 -5.675655,-9.04679 0.675843,-3.07716 10.884942,-7.38149 20.256839,-8.54061 4.686458,-0.57962 6.09949,-0.55003 10.832257,0.22684 6.806665,1.11731 10.363651,2.82812 14.563869,7.00491 3.99404,3.97175 5.995706,8.49415 6.693592,15.1232 0.262158,2.48983 0.480874,13.8546 0.486024,25.25507 0.008,17.91131 -0.102876,20.8885 -0.817334,21.90851 -0.758642,1.08308 -1.255397,1.1804 -6.025501,1.1804 -6.06895,0 -6.956708,-0.52659 -6.956708,-4.12662 0,-1.20125 -0.258387,-2.34376 -0.574241,-2.53895 -0.3158,-0.19522 -1.45106,0.38814 -2.522798,1.29631 -3.822807,3.23941 -6.245863,4.69755 -9.649727,5.80689 -3.528571,1.15 -9.097525,1.77705 -11.950091,1.34551 z M 66.37904,952.05967 c 4.04094,-1.92577 7.451388,-6.3401 9.234342,-11.95245 1.678698,-5.28411 1.82672,-6.72662 0.796144,-7.75719 -0.779255,-0.77922 -1.74705,-0.85299 -7.551184,-0.57536 -15.878062,0.75949 -22.876091,6.09716 -20.107812,15.33698 0.666442,2.22437 3.55725,4.93848 6.150421,5.77447 2.359533,0.76068 9.177832,0.26975 11.478089,-0.82645 z m 233.49632,13.74363 c -8.97186,-1.07739 -16.61026,-4.58816 -22.36574,-10.27971 -4.85163,-4.79779 -6.82786,-8.11233 -9.00856,-15.10902 -1.44474,-4.63549 -1.64041,-6.0092 -1.6266,-11.41899 0.0122,-4.71484 0.27013,-6.94022 1.106,-9.53827 0.59963,-1.86376 1.09022,-3.61133 1.09022,-3.88348 0,-0.27215 0.63914,-1.85427 1.42031,-3.51584 6.48751,-13.79904 21.11677,-21.13233 36.83257,-18.46328 11.22709,1.90672 18.86038,8.54058 22.55365,19.60065 1.14472,3.42808 1.40709,5.26622 1.49403,10.46646 0.0909,5.43397 -0.026,6.44008 -0.8424,7.26058 -0.87464,0.87889 -2.76323,0.97304 -24.4313,1.21808 l -23.48342,0.26556 -0.17437,1.83256 c -0.10734,1.12781 0.40322,3.27254 1.32753,5.57673 1.17519,2.92979 2.23318,4.45971 4.86437,7.03425 2.8565,2.79497 3.97577,3.49431 7.43769,4.64723 7.69846,2.56384 15.72935,1.50713 23.35,-3.07231 4.25572,-2.5574 5.12462,-2.74596 6.3908,-1.3869 1.84606,1.98153 4.43206,7.34139 4.07892,8.45411 -0.80321,2.53056 -8.73871,7.0474 -15.7498,8.96464 -4.09941,1.121 -10.84266,1.75778 -14.2639,1.34695 z m 15.67746,-45.69834 c 0.69151,-0.69153 0.80315,-1.40868 0.51662,-3.31947 -0.4327,-2.88566 -0.89536,-3.85854 -3.18159,-6.68977 -2.57698,-3.19133 -6.0236,-4.71981 -11.15358,-4.94626 -5.65394,-0.24959 -9.47866,1.14199 -13.46702,4.89978 -3.85441,3.63165 -6.09066,8.56552 -4.57099,10.08519 0.74266,0.74268 2.79484,0.85263 15.91355,0.85263 13.32759,0 15.16243,-0.10151 15.94301,-0.8821 z m 97.18453,45.52246 c -7.14775,-1.16819 -15.23285,-4.61489 -18.93913,-8.07372 -2.06001,-1.92249 -1.90737,-3.37249 0.77793,-7.38803 2.95133,-4.41343 4.17528,-4.63963 8.96345,-1.65639 9.69542,6.04069 20.98614,5.72073 24.02384,-0.68075 1.21397,-2.55829 0.73881,-4.44448 -1.70458,-6.76678 -2.31236,-2.19778 -3.69313,-2.98962 -9.40371,-5.39282 -12.74544,-5.36367 -18.37093,-9.31427 -21.186,-14.87815 -1.43009,-2.82643 -1.49499,-3.25821 -1.26768,-8.42865 0.20905,-4.75545 0.42913,-5.77755 1.72803,-8.02407 3.31735,-5.7376 8.90888,-9.36885 16.45187,-10.68425 5.82028,-1.01496 8.00747,-1.02036 13.66535,-0.0337 4.73976,0.82654 9.47978,2.64521 12.7825,4.90443 1.64332,1.12409 1.99169,1.67801 1.99169,3.16672 0,2.25184 -2.16861,6.62001 -4.00282,8.06279 -1.50345,1.18266 -2.57249,1.00629 -5.81694,-0.95964 -0.87957,-0.53299 -3.3194,-1.35371 -5.42188,-1.82381 -9.98641,-2.23295 -16.35973,0.25328 -16.35973,6.38194 0,3.59263 2.75957,5.85587 11.49499,9.42755 10.46308,4.27806 15.63777,7.35168 18.7295,11.12477 7.04027,8.5917 4.62677,21.40965 -5.21687,27.70657 -5.22173,3.34025 -14.60004,5.10935 -21.28981,4.016 z m -496.554832,-2.45463 c -0.740694,-0.74069 -0.834595,-4.5221 -0.834595,-33.60764 0,-28.80256 0.100168,-32.91604 0.826786,-33.95344 0.758646,-1.08309 1.2554,-1.18041 6.025504,-1.18041 6.351927,0 6.745056,0.30225 7.054592,5.42355 0.118491,1.96055 0.370931,3.72013 0.560962,3.91017 0.190034,0.19005 2.00682,-1.14187 4.037326,-2.95983 4.674559,-4.18524 7.323549,-5.68917 12.251717,-6.95576 4.774567,-1.22711 6.860466,-1.2591 12.060831,-0.18494 6.129122,1.26601 10.435032,4.41783 13.113287,9.59863 1.441022,2.78753 2.123877,2.60003 6.621573,-1.81817 4.883392,-4.79702 8.464915,-6.75654 14.5350841,-7.95243 3.6654917,-0.72215 4.9862692,-0.7519 8.8864606,-0.20021 5.9636279,0.84357 9.3652083,2.52509 12.9076393,6.38068 5.625946,6.12334 6.23434,10.13101 6.26116,41.24551 0.01542,17.9206 -0.09406,20.88796 -0.808888,21.90851 -0.762947,1.08927 -1.247167,1.1804 -6.271886,1.1804 -3.8618987,0 -5.744808,-0.21903 -6.476049,-0.75326 C 5.9486971,962.53421 5.8901153,961.4712 5.6098987,939.22116 5.2884146,913.69665 5.0913178,912.02873 2.0649697,909.22057 -0.78908401,906.57228 -5.5738481,905.9328 -10.83805,907.4961 c -4.249931,1.26209 -9.225472,6.44014 -11.68751,12.16318 l -1.827833,4.24892 -0.274108,19.29659 c -0.260194,18.3178 -0.326424,19.33479 -1.305057,20.04962 -0.729487,0.53278 -2.608041,0.753 -6.423839,0.753 -4.46599,0 -5.535494,-0.15974 -6.222491,-0.92946 -0.719238,-0.80581 -0.853822,-4.03761 -1.011778,-24.29852 l -0.182171,-23.36907 -1.593345,-3.18118 c -2.170457,-4.33345 -3.945656,-5.31922 -9.560076,-5.30873 -5.272434,0.01 -8.197816,1.22495 -11.700573,4.8599 -2.959856,3.07153 -5.14874,7.20261 -6.609468,12.47375 -0.97725,3.52647 -1.075667,5.44244 -1.075667,20.93848 0,15.84989 -0.06872,17.11904 -0.97125,17.93583 -1.376649,1.24585 -11.297671,1.28097 -12.534266,0.0444 z m 430.962122,-0.2276 c -1.039,-1.03896 -1.06227,-1.77039 -1.06227,-33.38865 0,-38.63394 -0.72008,-35.12524 7.20863,-35.12524 6.63798,0 7.1315,0.43887 7.1315,6.34204 0,4.54995 0.62565,5.71115 1.97959,3.67395 1.71607,-2.58213 6.95865,-7.14864 9.92658,-8.64642 2.37086,-1.19649 4.01716,-1.60614 7.19379,-1.79003 5.43459,-0.3146 5.86246,0.20923 5.86246,7.17758 0,6.07298 -0.65698,7.05188 -4.73278,7.05188 -3.73945,0 -7.99098,1.81957 -11.44531,4.89837 -3.18984,2.84302 -4.42391,4.86382 -6.57069,10.75934 -1.32311,3.63349 -1.36504,4.16693 -1.65283,21.04186 -0.23113,13.55604 -0.45347,17.50419 -1.02415,18.1907 -0.59182,0.71188 -1.76585,0.87684 -6.24062,0.87684 -4.80355,0 -5.64819,-0.13647 -6.5739,-1.06222 z M -61.548563,859.86669 c -1.168451,-0.24809 -3.916976,-0.70941 -6.107826,-1.02514 -10.194119,-1.46913 -23.24293,-6.62745 -31.750387,-12.55123 -12.557784,-8.74408 -20.543014,-18.06764 -27.228384,-31.79186 -3.60437,-7.39935 -5.19593,-12.20482 -7.21204,-21.77573 -1.30405,-6.19063 -1.45294,-7.97529 -1.44008,-17.26124 0.0126,-9.12229 0.18236,-11.1617 1.42393,-17.11004 1.88836,-9.04712 3.49418,-13.78907 7.26474,-21.45265 8.24679,-16.76142 21.57989,-29.65974 38.700517,-37.43855 1.866125,-0.84787 3.658638,-1.54306 3.983364,-1.54486 0.324722,-10e-4 1.307447,-0.37738 2.183787,-0.83464 0.876341,-0.45724 3.082434,-1.17691 4.902404,-1.59925 1.819974,-0.42235 3.909966,-0.99638 4.644446,-1.27563 1.793151,-0.68174 14.436776,-2.1311 18.51999,-2.12297 9.52539,0.0189 24.414358,2.33565 30.621395,4.7646 1.314511,0.5144 3.107024,1.10324 3.983365,1.30855 0.87634,0.2053 4.210841,1.68709 7.410013,3.29287 10.0649528,5.05193 17.2868457,10.49429 17.2868457,13.02723 0,1.29895 -0.7723479,2.65592 -5.99283894,10.52939 -2.99867676,4.52259 -4.30277696,5.84227 -5.77332886,5.84227 -0.5644161,0 -3.1071836,-1.41266 -5.6506409,-3.13923 -9.411309,-6.3887 -19.156372,-10.35784 -29.324628,-11.94386 -9.212723,-1.43698 -11.655801,-1.51258 -18.58574,-0.57517 -16.770919,2.26862 -28.979242,9.11743 -38.308334,21.49089 -5.288906,7.01479 -7.607766,11.93559 -10.391246,22.05092 -1.3654,4.96198 -1.46245,6.00949 -1.47615,15.93345 -0.0136,9.8374 0.0931,11.05401 1.4431,16.46458 3.12597,12.52791 7.5211,20.61962 15.984861,29.42914 7.335552,7.63523 17.28844,13.24025 27.436617,15.45108 7.740049,1.68621 18.065993,1.69673 26.430791,0.0269 10.15041,-2.02625 22.056845,-7.70352 30.6511397,-14.61513 3.6950752,-2.97166 5.474311,-3.83241 6.839171,-3.30865 0.75163435,0.28842 7.9916911,9.57126 9.8774671,12.66443 1.6173012,2.65275 1.3983222,4.19395 -0.9030012,6.35541 -10.8797889,10.21864 -28.1180366,18.80176 -42.6219976,21.22195 -1.898739,0.31683 -5.17492,0.91565 -7.280421,1.33073 -4.15773,0.81962 -16.016579,0.92973 -19.5409,0.18142 z m 323.980303,0.19884 c -17.02591,-2.30001 -28.2138,-6.29338 -39.03697,-13.93374 -8.45647,-5.96965 -9.28496,-7.56934 -6.26036,-12.08822 2.6714,-3.99113 8.40516,-11.50862 9.33748,-12.24228 1.48011,-1.16468 2.60794,-0.74172 7.58225,2.84362 11.71471,8.44363 22.85453,12.45683 34.48542,12.42365 16.34614,-0.0466 26.76231,-8.72379 26.77469,-22.30454 0.009,-9.80117 -5.5203,-16.31834 -20.46329,-24.11964 -3.68551,-1.92409 -6.95909,-3.49836 -7.27463,-3.49836 -0.63335,0 -13.5829,-6.07722 -21.07805,-9.89194 -9.4675,-4.81857 -18.82071,-12.32233 -22.15345,-17.77298 -4.72496,-7.72765 -6.26121,-13.00095 -6.26121,-21.49225 0,-20.39147 13.64419,-37.061 35.58472,-43.47487 13.29073,-3.88528 30.94612,-2.64706 45.62683,3.19991 4.8032,1.91299 6.64117,2.8845 11.3237,5.98541 4.44745,2.94523 5.73679,4.40009 5.68989,6.42041 -0.017,0.73832 -1.98887,4.80225 -4.3817,9.03098 -5.4306,9.59735 -5.66057,9.73061 -10.82551,6.27219 -10.67133,-7.14544 -19.15988,-9.97742 -29.90641,-9.97742 -6.7312,0 -10.53451,0.75421 -15.36644,3.04714 -9.07724,4.30752 -14.07439,12.85286 -12.6876,21.69634 0.65603,4.18342 2.48551,7.45197 6.08865,10.87797 4.55485,4.3309 9.57867,7.12218 24.35541,13.53206 11.81343,5.12446 21.70668,10.12536 26.71706,13.50515 15.64713,10.55484 22.22181,25.81539 19.02604,44.16142 -2.85448,16.38682 -14.37305,29.36255 -30.8203,34.71928 -7.65985,2.49475 -19.79817,3.9288 -26.07622,3.08071 z m 174.2058,0.0175 c -17.22936,-2.13798 -27.79168,-5.92552 -39.90503,-14.30955 -5.54294,-3.83643 -7.63043,-6.04737 -7.62835,-8.07951 0,-1.85264 10.06249,-15.54962 11.94219,-16.25866 1.14406,-0.43156 1.92873,-0.0739 5.82605,2.65558 13.10674,9.17931 23.54238,13.0113 35.34187,12.97764 8.70537,-0.0249 14.96627,-2.05516 20.18234,-6.54484 5.95046,-5.12181 8.40088,-14.31423 5.83715,-21.89718 -2.88095,-8.52106 -10.62427,-14.40756 -30.00287,-22.80825 -8.97648,-3.89133 -21.96368,-10.47283 -26.55577,-13.45758 -5.19946,-3.37955 -12.83141,-11.1933 -15.20796,-15.57015 -3.4888,-6.42539 -4.40421,-10.32733 -4.40421,-18.77269 0,-6.33007 0.18611,-8.02788 1.25179,-11.41898 2.63141,-8.37371 6.00679,-13.87649 12.06962,-19.67667 3.34747,-3.20241 10.60378,-8.47244 11.66571,-8.47244 0.24868,0 1.65052,-0.57976 3.11525,-1.28835 4.41427,-2.13542 9.7255,-3.50429 17.00335,-4.38226 13.79149,-1.66376 29.48419,1.14034 41.16143,7.35506 6.84382,3.64237 11.33934,7.02948 11.83244,8.91508 0.16824,0.64329 -0.26805,2.15351 -1.04508,3.61746 -0.73366,1.38223 -2.53514,4.78366 -4.00329,7.55873 -2.97481,5.62304 -4.38775,7.43561 -5.79615,7.43561 -0.52325,0 -2.93138,-1.28508 -5.35136,-2.85574 -10.38701,-6.74159 -18.52654,-9.3599 -29.09685,-9.3599 -8.84905,0 -14.22977,1.59511 -19.95064,5.91439 -3.18253,2.40286 -6.83352,7.5078 -7.73525,10.81573 -0.90079,3.30434 -0.33361,10.1996 1.06147,12.90348 3.49038,6.76525 10.46121,11.47744 28.48334,19.25437 10.7289,4.62976 23.16019,10.86934 27.35243,13.72892 8.04962,5.49075 14.46778,13.13228 17.25966,20.54958 1.25769,3.3413 2.5674,10.9615 2.59355,15.08985 0.0238,3.78377 -1.29678,12.05477 -2.4596,15.40234 -4.55225,13.10552 -15.56285,23.53466 -29.60925,28.04564 -7.22281,2.31958 -19.07146,3.69724 -25.22798,2.93329 z m -403.987076,-3.31398 -1.253859,-1.01527 -0.137929,-79.11795 c -0.134905,-77.40417 -0.115782,-79.14524 0.884361,-80.37814 l 1.022237,-1.2602 30.982553,0.0526 c 20.110254,0.0341 32.66003,0.26896 35.762645,0.66918 19.850378,2.56056 33.235868,14.4454 38.021898,33.75932 2.25023,9.08075 2.25783,17.14995 0.0244,26.06604 -1.75156,6.99269 -4.05798,11.86812 -8.31402,17.57479 -3.86333,5.18007 -7.80792,8.43598 -14.72825,12.1569 -1.75002,0.94095 -2.5228,1.69047 -2.5228,2.44689 0,0.59975 1.10749,2.91484 2.46108,5.14466 1.3536,2.22982 2.72877,4.66286 3.05593,5.40677 0.32717,0.74391 1.60971,3.06727 2.85007,5.16303 1.24037,2.09576 2.25523,3.92663 2.25523,4.06859 0,0.14197 0.92,1.89278 2.04442,3.89071 1.12448,1.99791 3.07712,5.54459 4.33927,7.8815 5.1602,9.55429 7.97602,14.69461 11.78305,21.51016 7.36731,13.18945 7.8262,14.37181 6.20672,15.99131 -1.00705,1.00705 -1.65352,1.05401 -12.39793,0.90064 -12.95257,-0.1849 -12.39012,0.006 -15.06243,-5.12501 -0.8603,-1.65194 -2.64421,-5.03505 -3.96424,-7.51801 -1.32004,-2.48297 -3.40684,-6.4265 -4.63743,-8.76341 -1.23055,-2.33691 -3.37869,-6.39994 -4.77372,-9.02896 -1.39503,-2.62902 -3.67139,-6.93105 -5.05866,-9.56007 -1.38722,-2.62902 -3.357447,-6.33355 -4.378305,-8.23229 -1.020803,-1.89873 -2.929524,-5.48376 -4.241538,-7.96673 -2.649468,-5.01397 -6.850006,-12.77913 -8.090851,-14.95677 -2.775609,-4.87117 -4.110459,-7.41858 -5.212525,-9.94761 -1.825016,-4.18798 -1.458336,-4.4114 7.974432,-4.85907 8.267181,-0.39235 11.728938,-1.39723 16.776177,-4.86982 3.08026,-2.1193 6.56697,-6.96325 8.41945,-11.69687 1.39497,-3.56448 1.51071,-4.40959 1.51071,-11.0303 0,-6.56022 -0.12742,-7.5123 -1.49807,-11.19391 -2.87466,-7.72153 -8.30483,-12.92405 -15.599011,-14.94509 -3.78239,-1.04799 -5.705136,-1.16706 -21.839248,-1.35244 -13.192957,-0.15158 -17.886154,-0.0419 -18.456253,0.43124 -0.658053,0.54612 -0.764542,10.13584 -0.764542,68.84415 0,73.81889 0.118281,70.76148 -2.767109,71.53439 -0.668941,0.1792 -5.312534,0.32908 -10.319147,0.33307 -8.177581,0.007 -9.230354,-0.096 -10.356743,-1.00801 z m 138.695006,0.13276 c -2.16349,-0.81991 -2.12446,0.21724 -2.12446,-56.46128 0,-48.45376 0.0915,-54.61585 0.82679,-55.66559 0.80337,-1.14696 1.10329,-1.18041 10.58375,-1.18041 l 9.75695,0 1.10812,1.40875 1.10812,1.40874 -0.14011,54.33949 c -0.1323,51.32106 -0.19268,54.39216 -1.08714,55.2878 -0.82652,0.82763 -2.11091,0.96208 -10.09119,1.05637 -5.02929,0.0594 -9.50266,-0.0278 -9.94083,-0.19387 z m 172.73063,-0.4754 c -1.16607,-0.81675 -1.1804,-0.9874 -1.1804,-14.05587 0,-12.53563 0.0539,-13.2579 1.02732,-13.77888 0.59485,-0.31837 4.90469,-0.5498 10.23858,-0.5498 7.47732,0 9.43346,0.15564 10.39166,0.82678 1.16283,0.81449 1.1804,1.01256 1.1804,13.30203 l 0,12.47523 -1.30362,1.30365 c -1.28086,1.2808 -1.4603,1.30365 -10.23858,1.30365 -7.22724,0 -9.16058,-0.15803 -10.11536,-0.82679 z m -0.25094,-48.07836 c -0.87583,-0.5101 -0.92946,-3.74244 -0.92946,-55.99782 0,-54.28461 0.022,-55.46808 1.02732,-56.00627 0.59849,-0.32029 4.99834,-0.5498 10.53999,-0.5498 8.5412,0 9.60242,0.0992 10.39166,0.97127 0.80591,0.89051 0.87899,5.50588 0.87899,55.50155 0,53.82211 -0.0137,54.54406 -1.06222,55.5925 -0.98381,0.98378 -1.75843,1.06103 -10.48956,1.04608 -5.41014,-0.009 -9.82332,-0.24683 -10.35672,-0.55751 z m -885.06502,-5.62916 c -1.63319,-0.33095 -2.46824,-1.53564 -2.09506,-3.02248 0.37474,-1.49306 5.32186,-6.20347 10.02885,-9.54893 11.66729,-8.29247 38.96887,-22.2298 41.79096,-21.33409 1.21563,0.38582 4.97291,8.65916 4.72366,10.40117 -0.14926,1.04295 -1.64882,1.99934 -8.67829,5.53477 -8.99359,4.52328 -13.33549,7.07857 -20.09406,11.82576 -2.28834,1.60732 -5.27587,3.34524 -6.63896,3.86205 -3.72893,1.41383 -16.03894,2.88928 -19.0371,2.28175 z m 711.5231,-79.30674 c -1.00312,-1.00313 -1.06223,-1.77038 -1.06223,-13.79031 0,-12.0403 0.0555,-12.75778 1.02734,-13.27788 0.59803,-0.32007 4.98717,-0.5498 10.50413,-0.5498 7.71764,0 9.69588,0.15348 10.6572,0.82679 1.1616,0.81361 1.1804,1.02141 1.1804,13.03647 l 0,12.20967 -1.30362,1.30364 c -1.28509,1.28506 -1.43662,1.30365 -10.62231,1.30365 -8.61054,0 -9.39941,-0.0807 -10.38091,-1.06223 z"
         id="path3525"
         inkscape:connector-curvature="0" />
    </g>
  </g>
</svg>
