<?xml version="1.0" encoding="UTF-8" standalone="no"?>
<!-- Created with Inkscape (http://www.inkscape.org/) -->

<svg
   xmlns:dc="http://purl.org/dc/elements/1.1/"
   xmlns:cc="http://creativecommons.org/ns#"
   xmlns:rdf="http://www.w3.org/1999/02/22-rdf-syntax-ns#"
   xmlns:svg="http://www.w3.org/2000/svg"
   xmlns="http://www.w3.org/2000/svg"
   xmlns:sodipodi="http://sodipodi.sourceforge.net/DTD/sodipodi-0.dtd"
   xmlns:inkscape="http://www.inkscape.org/namespaces/inkscape"
   id="svg2"
   version="1.1"
   inkscape:version="0.91 r13725"
   xml:space="preserve"
   width="1052.3625"
   height="744.09497"
   viewBox="0 0 1052.3625 744.09497"
   sodipodi:docname="dronebird_logo.svg"><metadata
     id="metadata8"><rdf:RDF><cc:Work
         rdf:about=""><dc:format>image/svg+xml</dc:format><dc:type
           rdf:resource="http://purl.org/dc/dcmitype/StillImage" /><dc:title></dc:title></cc:Work></rdf:RDF></metadata><defs
     id="defs6"><clipPath
       clipPathUnits="userSpaceOnUse"
       id="clipPath16"><path
         d="m 0,595.276 841.89,0 L 841.89,0 0,0 0,595.276 Z"
         id="path18"
         inkscape:connector-curvature="0" /></clipPath></defs><sodipodi:namedview
     pagecolor="#ffffff"
     bordercolor="#666666"
     borderopacity="1"
     objecttolerance="10"
     gridtolerance="10"
     guidetolerance="10"
     inkscape:pageopacity="0"
     inkscape:pageshadow="2"
     inkscape:window-width="2560"
     inkscape:window-height="1343"
     id="namedview4"
     showgrid="false"
     inkscape:zoom="3.4509974"
     inkscape:cx="531.81317"
     inkscape:cy="382.68719"
     inkscape:window-x="0"
     inkscape:window-y="1"
     inkscape:window-maximized="1"
     inkscape:current-layer="g10" /><g
     id="g10"
     inkscape:groupmode="layer"
     inkscape:label="dronebird_logo"
     transform="matrix(1.25,0,0,-1.25,0,744.095)"><g
       id="g20"
       transform="translate(561.873,365.6797)"><path
         d="m 0,0 -88.975,0 -47.303,-22.868 1.586,-4.648 c -2.221,1.89 -5.094,3.037 -8.239,3.037 -3.145,0 -6.018,-1.147 -8.238,-3.037 l 1.586,4.648 -47.304,22.868 -88.975,0 41.748,-25.904 57.686,0 -42.202,-8.048 18.065,-10.716 42.18,5.55 9.61,-11.659 -3.832,-2.978 4.237,-9.63 11.555,6.934 0.3,7.042 c 1.138,-0.334 2.338,-0.521 3.584,-0.521 1.246,0 2.447,0.187 3.585,0.521 l 0.3,-7.042 11.555,-6.934 4.237,9.63 -3.832,2.978 9.609,11.659 42.18,-5.55 18.065,10.716 -42.202,8.048 57.686,0 L 0,0 Z"
         style="fill:#008bc7;fill-opacity:1;fill-rule:nonzero;stroke:none"
         id="path22"
         inkscape:connector-curvature="0" /></g><g
       id="g24"
       transform="translate(369.9292,287.4473)"><path
         d="m 0,0 c -0.142,-0.039 -0.168,-0.064 -0.207,-0.143 -0.555,-0.89 -0.762,-1.214 -1.266,-1.769 l -1.344,0.736 c 0.555,0.619 0.995,1.215 1.434,2.184 L -0.064,0.389 C 0.129,0.297 0.168,0.232 0.168,0.168 0.168,0.064 0.117,0.039 0,0 m -1.06,0.879 c -0.671,0.892 -1.111,1.369 -2.223,2.455 0.957,1.035 1.409,1.719 1.836,2.521 L -0.103,5.324 C -0.026,5.299 0.22,5.209 0.22,5.08 0.22,4.988 0.091,4.963 0.052,4.949 -0.246,4.873 -0.284,4.859 -0.336,4.795 -0.517,4.602 -1.331,3.645 -1.525,3.426 -0.762,2.791 -0.232,2.223 0.22,1.668 L -1.06,0.879 Z m -6.048,-1.1 c -0.078,-0.465 -0.336,-1.484 -0.75,-2.209 l -1.473,0.491 c 0.465,0.75 0.737,1.589 0.827,2.468 l 1.447,-0.322 c 0.104,-0.025 0.259,-0.078 0.259,-0.193 0,-0.092 -0.065,-0.157 -0.31,-0.235 m -0.478,0.879 c -0.931,1.332 -1.823,2.043 -2.301,2.418 0.75,0.84 1.396,1.77 1.939,2.766 L -6.591,5.26 c 0.039,-0.012 0.284,-0.129 0.284,-0.233 0,-0.09 -0.09,-0.115 -0.155,-0.129 C -6.708,4.82 -6.733,4.809 -6.811,4.717 -6.901,4.602 -7.018,4.473 -8.078,3.322 -7.444,2.805 -6.992,2.43 -6.204,1.512 L -7.586,0.658 Z m 7.703,-6.035 c -1.874,0.363 -3.671,1.525 -4.64,3.309 -0.168,-0.414 -0.556,-1.358 -1.681,-2.262 -1.046,-0.826 -2.184,-1.15 -2.649,-1.291 l -1.125,1.344 c 3.322,0.646 4.473,1.99 4.421,5.402 l 1.124,-0.053 c -0.465,0.647 -1.124,1.436 -2.107,2.198 0.595,0.646 1.203,1.421 1.823,2.597 l 1.331,-0.515 c 0.052,-0.028 0.297,-0.118 0.297,-0.221 0,-0.117 -0.142,-0.143 -0.168,-0.154 -0.22,-0.053 -0.245,-0.065 -0.297,-0.118 -0.401,-0.49 -1.15,-1.318 -1.228,-1.408 0.763,-0.582 1.241,-1.06 1.745,-1.642 l -1.241,-0.737 0.31,-0.011 c 0.181,-0.014 0.349,-0.028 0.349,-0.168 0,-0.079 -0.026,-0.092 -0.168,-0.235 -0.09,-0.09 -0.129,-0.232 -0.129,-0.451 0,-0.789 0.556,-1.564 0.775,-1.861 1.396,-1.836 2.921,-2.055 4.188,-2.223 l -0.93,-1.5 z"
         style="fill:#004862;fill-opacity:1;fill-rule:nonzero;stroke:none"
         id="path26"
         inkscape:connector-curvature="0" /></g><path
       d="m 382.203,284.553 -5.79,0 0,-1.008 5.79,0 0,1.008 z m 1.46,1.047 0,-3.504 -1.46,0 0,0.402 -5.79,0 0,-0.504 -1.474,0 0,3.606 8.724,0 z m -0.452,5.545 -7.819,0 0,-1.514 -1.37,0 0,2.637 4.523,0 0,0.918 1.499,-0.065 c 0.13,0 0.336,-0.014 0.336,-0.142 0,-0.09 -0.077,-0.143 -0.116,-0.168 -0.194,-0.155 -0.206,-0.168 -0.206,-0.258 l 0,-0.285 4.523,0 0,-2.713 -1.37,0 0,1.59 z m -3.153,-1.901 0,-0.478 3.515,0 0,-1.061 -3.515,0 0,-0.49 4.859,0 0,-1.111 -11.218,0 0,1.111 4.846,0 0,0.49 -3.541,0 0,1.061 3.541,0 0,0.478 -2.727,0 0,1.059 2.727,0 0,0.738 1.461,-0.066 c 0.129,0 0.323,-0.026 0.323,-0.141 0,-0.064 -0.039,-0.117 -0.065,-0.143 -0.026,-0.025 -0.181,-0.129 -0.206,-0.156 l 0,-0.232 2.726,0 0,-1.059 -2.726,0 z"
       style="fill:#004862;fill-opacity:1;fill-rule:nonzero;stroke:none"
       id="path28"
       inkscape:connector-curvature="0" /><g
       id="g30"
       transform="translate(397.4883,290.7559)"><path
         d="M 0,0 C -0.349,0.453 -0.75,0.854 -1.202,1.164 L -0.53,1.732 C -0.065,1.408 0.323,1.021 0.672,0.568 L 0,0 Z M -1.512,-0.84 C -1.874,-0.361 -2.262,0 -2.675,0.297 l 0.71,0.568 c 0.414,-0.297 0.801,-0.658 1.163,-1.136 l -0.71,-0.569 z m -0.375,-4.433 c -1.112,1.035 -2.34,1.964 -3.735,2.546 l 0,-5.519 -1.59,0 0,10.236 1.603,-0.285 c 0.026,0 0.31,-0.051 0.31,-0.205 0,-0.078 -0.323,-0.285 -0.323,-0.35 l 0,-3.347 0.594,0.904 c 1.732,-0.75 3.063,-1.719 4.162,-2.687 l -1.021,-1.293 z"
         style="fill:#004862;fill-opacity:1;fill-rule:nonzero;stroke:none"
         id="path32"
         inkscape:connector-curvature="0" /></g><path
       d="m 409.115,290.187 -5.88,0 0,-5.027 5.88,0 0,5.027 z m 0,-7.044 0,0.556 -5.88,0 0,-0.504 -1.538,0 0,8.453 8.956,0 0,-8.505 -1.538,0 z"
       style="fill:#004862;fill-opacity:1;fill-rule:nonzero;stroke:none"
       id="path34"
       inkscape:connector-curvature="0" /><path
       d="m 414.216,288.416 9.188,0 0,-1.641 -9.188,0 0,1.641 z"
       style="fill:#004862;fill-opacity:1;fill-rule:nonzero;stroke:none"
       id="path36"
       inkscape:connector-curvature="0" /><g
       id="g38"
       transform="translate(432.875,286.0117)"><path
         d="m 0,0 c -2.043,-1.654 -3.271,-2.195 -4.873,-2.881 -0.064,-0.182 -0.09,-0.4 -0.193,-0.4 -0.079,0 -0.195,0.076 -0.286,0.244 l -0.904,1.553 c 1.033,0.244 2.727,0.683 4.795,2.234 1.978,1.475 3.219,3.18 3.787,3.955 L 3.218,3.412 C 2.713,2.74 1.705,1.385 0,0 m -3.787,3.516 c -0.736,0.607 -1.615,1.164 -2.65,1.629 l 0.789,1.214 c 0.853,-0.375 1.9,-0.929 2.713,-1.601 L -3.787,3.516 Z"
         style="fill:#004862;fill-opacity:1;fill-rule:nonzero;stroke:none"
         id="path40"
         inkscape:connector-curvature="0" /></g><g
       id="g42"
       transform="translate(447.0732,289.6836)"><path
         d="M 0,0 C 0.039,-1.436 0.245,-2.275 0.711,-3.297 1.267,-2.055 1.474,-1.139 1.59,0 L 0,0 Z M -3.024,1.525 C -3.218,1.951 -3.425,2.313 -3.735,2.752 L -2.83,3.309 C -2.507,2.895 -2.313,2.559 -2.081,2.08 L -3.024,1.525 Z M 2.817,-7.6 C 1.899,-7.018 1.37,-6.553 0.698,-5.752 0.194,-6.32 -0.439,-7.018 -2.067,-7.91 l -1.112,1.201 c 1.176,0.479 2.287,1.15 3.063,2.147 -0.504,0.917 -0.75,1.564 -0.983,2.597 -0.271,-0.543 -0.4,-0.736 -0.49,-0.865 l -1.345,0.672 c 0.298,0.31 0.466,0.529 0.646,0.814 -0.025,0 -0.18,0.037 -0.206,0.037 -0.077,0 -0.272,-0.297 -0.323,-0.347 -0.311,-0.35 -0.84,-0.879 -1.151,-1.215 l 0,-0.854 0.918,0.84 c 0.375,-0.361 0.865,-0.89 1.461,-1.797 l -1.177,-0.904 c -0.297,0.596 -0.749,1.215 -1.202,1.654 l 0,-2.701 c 0,-0.957 -1.667,-1.086 -2.248,-1.111 l -0.569,1.486 c 0.905,-0.064 1.318,-0.025 1.318,0.401 l 0,1.396 c -0.13,-0.078 -0.866,-0.543 -1.486,-0.867 -0.077,-0.037 -0.104,-0.051 -0.142,-0.168 -0.052,-0.154 -0.052,-0.193 -0.142,-0.193 -0.09,0 -0.168,0.142 -0.207,0.232 l -0.465,1.254 c 0.801,0.285 1.447,0.556 2.442,1.06 l 0,0.776 -1.124,-0.518 c -0.181,0.362 -0.466,0.918 -0.97,1.629 l 1.138,0.594 c 0.426,-0.594 0.711,-1.059 0.956,-1.551 l 0,2.275 -2.003,0 0,1.227 2.003,0 0,2.211 1.383,-0.025 c 0.065,0 0.349,-0.014 0.349,-0.168 0,-0.079 -0.051,-0.118 -0.116,-0.182 -0.026,-0.012 -0.117,-0.09 -0.117,-0.143 l 0,-1.693 1.978,0 0,-1.227 -1.978,0 0,-1.125 c 0.246,0.233 0.504,0.543 0.698,0.829 l 0.982,-0.776 c 0.039,-0.039 0.092,-0.092 0.13,-0.142 0.827,1.537 1.137,3.011 1.331,4.652 L 0.427,3.283 C 0.543,3.256 0.841,3.217 0.841,3.076 0.841,2.984 0.75,2.934 0.698,2.908 0.517,2.816 0.505,2.805 0.491,2.766 0.245,1.848 0.168,1.59 0.077,1.266 l 3.619,0 L 3.696,0 2.973,0 C 2.767,-1.396 2.392,-2.986 1.513,-4.576 2.301,-5.48 2.96,-5.92 3.929,-6.398 L 2.817,-7.6 Z"
         style="fill:#004862;fill-opacity:1;fill-rule:nonzero;stroke:none"
         id="path44"
         inkscape:connector-curvature="0" /></g><g
       id="g46"
       transform="translate(460.5234,285.3281)"><path
         d="M 0,0 C 0.181,-0.311 0.504,-0.711 0.788,-0.982 1.047,-0.75 1.344,-0.336 1.498,0 L 0,0 Z M -0.311,1.59 C -0.336,1.434 -0.362,1.291 -0.4,1.123 l 3.101,0 0.555,-0.426 C 2.934,-0.285 2.559,-0.918 1.861,-1.707 2.675,-2.055 3.205,-2.197 4.084,-2.262 L 3.127,-3.541 C 2.274,-3.334 1.667,-3.102 0.826,-2.572 0.142,-2.973 -0.324,-3.193 -1.1,-3.451 l -0.994,0.996 c 1.137,0.297 1.59,0.555 1.926,0.748 -0.311,0.363 -0.557,0.711 -0.789,1.139 -0.582,-1.254 -1.461,-2.159 -2.158,-2.78 l -1.022,0.762 c -0.064,-0.271 -0.232,-0.762 -1.15,-0.762 l -0.879,0 -0.749,1.487 c 0.336,-0.014 0.827,-0.039 1.02,-0.039 0.157,0 0.389,0.025 0.389,0.375 l 0,2.584 C -5.713,0.982 -6.049,0.891 -6.242,0.801 -6.308,0.775 -6.334,0.736 -6.359,0.697 -6.488,0.516 -6.514,0.49 -6.604,0.49 c -0.091,0 -0.104,0.104 -0.13,0.272 l -0.194,1.486 c 0.801,0.182 1.073,0.246 1.422,0.336 l 0,1.875 -1.332,0 0,1.357 1.332,0 0,2.055 1.434,-0.117 C -3.955,7.74 -3.748,7.715 -3.748,7.611 -3.748,7.561 -3.787,7.508 -3.891,7.432 -4.033,7.328 -4.059,7.275 -4.059,7.225 l 0,-1.409 0.892,0 0,-1.357 -0.892,0 0,-1.486 c 0.479,0.142 0.594,0.179 0.75,0.232 l 0,-1.279 C -3.503,1.848 -3.826,1.705 -4.059,1.615 l 0,-3.722 c 0.375,0.246 0.776,0.503 1.267,1.189 0.698,0.969 0.892,1.783 1.073,2.508 l -1.125,0 0,1.15 1.28,0 c 0.013,0.233 0.013,0.477 0.013,0.569 l -1.125,0 0,1.175 0.672,0 c -0.142,0.194 -0.414,0.582 -0.827,0.995 l 1.06,0.66 C -1.318,5.674 -0.943,5.078 -0.775,4.795 L -1.229,4.484 0,4.484 C -0.117,4.756 -0.389,5.363 -0.764,5.867 L 0.193,6.346 C -0.854,6.268 -1.371,6.242 -2.314,6.217 L -2.999,7.443 C -2.146,7.432 0.322,7.393 2.623,8.012 L 3.502,6.85 C 3.541,6.797 3.631,6.682 3.631,6.604 3.631,6.539 3.58,6.5 3.516,6.5 3.424,6.5 3.037,6.643 2.946,6.643 2.855,6.643 2.223,6.539 2.094,6.525 1.641,6.461 1.137,6.41 0.504,6.357 0.814,5.867 1.033,5.389 1.215,4.859 l -0.802,-0.375 0.905,0 C 1.705,5.143 1.99,5.686 2.313,6.475 L 3.527,5.945 C 3.541,5.932 3.786,5.828 3.786,5.725 3.786,5.621 3.695,5.596 3.67,5.596 3.489,5.545 3.477,5.531 3.424,5.479 3.373,5.428 2.908,4.639 2.805,4.484 l 0.981,0 0,-1.175 -3.929,0 C -0.156,2.998 -0.156,2.92 -0.168,2.74 l 4.342,0 0,-1.15 -4.485,0 z"
         style="fill:#004862;fill-opacity:1;fill-rule:nonzero;stroke:none"
         id="path48"
         inkscape:connector-curvature="0" /></g><g
       id="g50"
       transform="translate(473.6748,288.5195)"><path
         d="m 0,0 c -0.581,-0.465 -1.009,-0.723 -1.681,-1.033 l -0.645,1.201 c 0.878,0.336 1.667,0.803 2.352,1.422 l -2.379,0 0,0.789 -0.71,-1.707 c 0.775,-1.111 1.034,-1.68 1.164,-2.506 0.956,0.49 1.447,0.879 2.054,1.537 C 0.13,-0.232 0.052,-0.09 0,0 m -4.446,0.4 1.034,2.508 -1.085,0 0,-6.035 c 0.723,0 1.266,0.025 1.266,1.022 0,0.49 -0.207,1.304 -1.215,2.505 m 9.707,-0.865 c -0.039,0 -0.207,0.026 -0.234,0.026 -0.116,0 -0.155,-0.026 -0.258,-0.104 -0.362,-0.283 -0.621,-0.478 -1.228,-0.84 0.505,-1.705 1.216,-2.74 1.797,-3.308 L 4.032,-5.621 C 2.907,-4.238 2.029,-1.73 1.822,1.59 l -0.064,0 C 1.628,1.422 1.409,1.164 0.917,0.736 c 0.375,-0.632 0.789,-1.355 1.125,-2.57 0.232,-0.828 0.414,-1.822 0.414,-2.561 0,-2.273 -1.99,-2.197 -2.727,-2.158 l -0.478,1.475 c 0.4,-0.065 0.917,-0.065 0.93,-0.065 0.659,0 0.943,0.233 0.943,1.112 0,0.322 -0.013,0.504 -0.039,0.646 -1.24,-1.189 -1.977,-1.707 -3.606,-2.496 l -0.956,1.19 c 1.953,0.699 3.064,1.55 4.226,2.869 C 0.711,-1.68 0.685,-1.629 0.646,-1.498 0,-2.105 -0.413,-2.416 -1.253,-2.947 l -0.621,0.75 c -0.025,-1.487 -0.479,-2.03 -1.965,-2.274 l -0.658,1.28 0,-3.362 -1.397,0 0,10.766 3.361,0 0.659,-0.697 -0.284,-0.686 1.344,0 c -0.285,0.621 -0.531,0.971 -0.789,1.318 l 1.151,0.596 C -0.13,4.316 0.168,3.904 0.543,3.205 L -0.13,2.83 l 1.629,0 C 1.822,3.438 2.067,4.033 2.274,4.691 L 3.386,4.33 C 3.722,4.227 3.864,4.072 3.864,3.969 3.864,3.865 3.748,3.826 3.735,3.813 3.58,3.762 3.477,3.736 3.45,3.684 3.412,3.645 3.076,2.961 2.999,2.83 l 1.887,0 0,-1.24 -1.849,0 C 3.089,0.828 3.153,0.4 3.244,-0.104 3.593,0.143 3.813,0.311 4.304,0.789 l 0.918,-0.84 c 0.039,-0.025 0.193,-0.168 0.193,-0.271 0,-0.092 -0.09,-0.143 -0.154,-0.143"
         style="fill:#004862;fill-opacity:1;fill-rule:nonzero;stroke:none"
         id="path52"
         inkscape:connector-curvature="0" /></g><g
       id="g54"
       transform="translate(416.582,326.3359)"><path
         d="M 0,0 2.36,1.723 4.721,0 2.36,-5.862 0,0 Z"
         style="fill:#ffffff;fill-opacity:1;fill-rule:nonzero;stroke:none"
         id="path56"
         inkscape:connector-curvature="0" /></g><g
       id="g58"
       transform="translate(581.333,266.8896)"><path
         d="M 0,0 -0.45,-1.126 -4.091,0.356 -3.641,1.481 0,0 Z"
         style="fill:#004862;fill-opacity:1;fill-rule:nonzero;stroke:none"
         id="path60"
         inkscape:connector-curvature="0" /></g><g
       id="g62"
       transform="translate(574.8574,269.4961)"><path
         d="M 0,0 -0.439,-1.098 -4.002,0.352 -3.563,1.449 0,0 Z"
         style="fill:#004862;fill-opacity:1;fill-rule:nonzero;stroke:none"
         id="path64"
         inkscape:connector-curvature="0" /></g><g
       id="g66"
       transform="translate(568.459,272.0703)"><path
         d="M 0,0 -0.428,-1.07 -3.912,0.348 -3.484,1.418 0,0 Z"
         style="fill:#004862;fill-opacity:1;fill-rule:nonzero;stroke:none"
         id="path68"
         inkscape:connector-curvature="0" /></g><g
       id="g70"
       transform="translate(562.1387,274.6123)"><path
         d="M 0,0 -0.418,-1.042 -3.824,0.345 -3.406,1.387 0,0 Z"
         style="fill:#004862;fill-opacity:1;fill-rule:nonzero;stroke:none"
         id="path72"
         inkscape:connector-curvature="0" /></g><g
       id="g74"
       transform="translate(555.8965,277.123)"><path
         d="M 0,0 -0.406,-1.014 -3.734,0.341 -3.328,1.355 0,0 Z"
         style="fill:#004862;fill-opacity:1;fill-rule:nonzero;stroke:none"
         id="path76"
         inkscape:connector-curvature="0" /></g><g
       id="g78"
       transform="translate(549.7324,279.6035)"><path
         d="M 0,0 -0.396,-0.987 -3.646,0.336 -3.25,1.322 0,0 Z"
         style="fill:#004862;fill-opacity:1;fill-rule:nonzero;stroke:none"
         id="path80"
         inkscape:connector-curvature="0" /></g><g
       id="g82"
       transform="translate(543.6455,282.0508)"><path
         d="M 0,0 -0.385,-0.959 -3.557,0.332 -3.173,1.291 0,0 Z"
         style="fill:#004862;fill-opacity:1;fill-rule:nonzero;stroke:none"
         id="path84"
         inkscape:connector-curvature="0" /></g><g
       id="g86"
       transform="translate(537.6367,284.4668)"><path
         d="M 0,0 -0.373,-0.931 -3.468,0.328 -3.094,1.26 0,0 Z"
         style="fill:#004862;fill-opacity:1;fill-rule:nonzero;stroke:none"
         id="path88"
         inkscape:connector-curvature="0" /></g><g
       id="g90"
       transform="translate(531.707,286.8516)"><path
         d="M 0,0 -0.363,-0.903 -3.379,0.324 -3.017,1.228 0,0 Z"
         style="fill:#004862;fill-opacity:1;fill-rule:nonzero;stroke:none"
         id="path92"
         inkscape:connector-curvature="0" /></g><g
       id="g94"
       transform="translate(525.8535,289.2051)"><path
         d="M 0,0 -0.352,-0.876 -3.289,0.32 -2.938,1.195 0,0 Z"
         style="fill:#004862;fill-opacity:1;fill-rule:nonzero;stroke:none"
         id="path96"
         inkscape:connector-curvature="0" /></g><g
       id="g98"
       transform="translate(520.0801,291.5264)"><path
         d="M 0,0 -0.342,-0.848 -3.201,0.316 -2.861,1.164 0,0 Z"
         style="fill:#004862;fill-opacity:1;fill-rule:nonzero;stroke:none"
         id="path100"
         inkscape:connector-curvature="0" /></g><g
       id="g102"
       transform="translate(514.3828,293.8164)"><path
         d="m 0,0 -0.33,-0.82 -2.782,1.132 0.33,0.82 L 0,0 Z"
         style="fill:#004862;fill-opacity:1;fill-rule:nonzero;stroke:none"
         id="path104"
         inkscape:connector-curvature="0" /></g><g
       id="g106"
       transform="translate(508.7637,296.0742)"><path
         d="M 0,0 -0.318,-0.793 -3.023,0.309 -2.703,1.101 0,0 Z"
         style="fill:#004862;fill-opacity:1;fill-rule:nonzero;stroke:none"
         id="path108"
         inkscape:connector-curvature="0" /></g><g
       id="g110"
       transform="translate(503.2236,298.3008)"><path
         d="M 0,0 -0.309,-0.765 -2.935,0.304 -2.626,1.068 0,0 Z"
         style="fill:#004862;fill-opacity:1;fill-rule:nonzero;stroke:none"
         id="path112"
         inkscape:connector-curvature="0" /></g><g
       id="g114"
       transform="translate(497.7607,300.4951)"><path
         d="M 0,0 -0.298,-0.736 -2.846,0.301 -2.548,1.037 0,0 Z"
         style="fill:#004862;fill-opacity:1;fill-rule:nonzero;stroke:none"
         id="path116"
         inkscape:connector-curvature="0" /></g><g
       id="g118"
       transform="translate(492.375,302.6582)"><path
         d="M 0,0 -0.285,-0.709 -2.756,0.297 -2.469,1.006 0,0 Z"
         style="fill:#004862;fill-opacity:1;fill-rule:nonzero;stroke:none"
         id="path120"
         inkscape:connector-curvature="0" /></g><g
       id="g122"
       transform="translate(487.0684,304.79)"><path
         d="M 0,0 -0.275,-0.681 -2.668,0.293 -2.392,0.974 0,0 Z"
         style="fill:#004862;fill-opacity:1;fill-rule:nonzero;stroke:none"
         id="path124"
         inkscape:connector-curvature="0" /></g><g
       id="g126"
       transform="translate(481.8398,306.8906)"><path
         d="M 0,0 -0.265,-0.654 -2.579,0.288 -2.314,0.941 0,0 Z"
         style="fill:#004862;fill-opacity:1;fill-rule:nonzero;stroke:none"
         id="path128"
         inkscape:connector-curvature="0" /></g><g
       id="g130"
       transform="translate(476.6895,308.959)"><path
         d="M 0,0 -0.254,-0.626 -2.49,0.284 -2.236,0.91 0,0 Z"
         style="fill:#004862;fill-opacity:1;fill-rule:nonzero;stroke:none"
         id="path132"
         inkscape:connector-curvature="0" /></g><g
       id="g134"
       transform="translate(471.6162,310.9951)"><path
         d="M 0,0 -0.243,-0.598 -2.401,0.28 -2.158,0.879 0,0 Z"
         style="fill:#004862;fill-opacity:1;fill-rule:nonzero;stroke:none"
         id="path136"
         inkscape:connector-curvature="0" /></g><g
       id="g138"
       transform="translate(466.6211,313)"><path
         d="M 0,0 -0.232,-0.569 -2.313,0.277 -2.08,0.848 0,0 Z"
         style="fill:#004862;fill-opacity:1;fill-rule:nonzero;stroke:none"
         id="path140"
         inkscape:connector-curvature="0" /></g><g
       id="g142"
       transform="translate(461.7041,314.9746)"><path
         d="M 0,0 -0.222,-0.543 -2.224,0.271 -2.003,0.814 0,0 Z"
         style="fill:#004862;fill-opacity:1;fill-rule:nonzero;stroke:none"
         id="path144"
         inkscape:connector-curvature="0" /></g><g
       id="g146"
       transform="translate(456.8643,316.916)"><path
         d="M 0,0 -0.21,-0.515 -2.134,0.269 -1.925,0.783 0,0 Z"
         style="fill:#004862;fill-opacity:1;fill-rule:nonzero;stroke:none"
         id="path148"
         inkscape:connector-curvature="0" /></g><g
       id="g150"
       transform="translate(452.1035,318.8262)"><path
         d="M 0,0 -0.2,-0.486 -2.046,0.265 -1.847,0.752 0,0 Z"
         style="fill:#004862;fill-opacity:1;fill-rule:nonzero;stroke:none"
         id="path152"
         inkscape:connector-curvature="0" /></g><g
       id="g154"
       transform="translate(447.4199,320.7051)"><path
         d="M 0,0 -0.188,-0.459 -1.956,0.261 -1.769,0.719 0,0 Z"
         style="fill:#004862;fill-opacity:1;fill-rule:nonzero;stroke:none"
         id="path156"
         inkscape:connector-curvature="0" /></g><g
       id="g158"
       transform="translate(442.8145,322.5518)"><path
         d="M 0,0 -0.178,-0.431 -1.867,0.257 -1.69,0.688 0,0 Z"
         style="fill:#004862;fill-opacity:1;fill-rule:nonzero;stroke:none"
         id="path160"
         inkscape:connector-curvature="0" /></g><g
       id="g162"
       transform="translate(438.2871,324.3672)"><path
         d="M 0,0 -0.166,-0.403 -1.778,0.253 -1.612,0.656 0,0 Z"
         style="fill:#004862;fill-opacity:1;fill-rule:nonzero;stroke:none"
         id="path164"
         inkscape:connector-curvature="0" /></g><g
       id="g166"
       transform="translate(433.8379,326.1514)"><path
         d="M 0,0 -0.156,-0.376 -1.69,0.248 -1.534,0.624 0,0 Z"
         style="fill:#004862;fill-opacity:1;fill-rule:nonzero;stroke:none"
         id="path168"
         inkscape:connector-curvature="0" /></g><g
       id="g170"
       transform="translate(429.4658,327.9033)"><path
         d="M 0,0 -0.145,-0.348 -1.601,0.245 -1.456,0.593 0,0 Z"
         style="fill:#004862;fill-opacity:1;fill-rule:nonzero;stroke:none"
         id="path172"
         inkscape:connector-curvature="0" /></g><g
       id="g174"
       transform="translate(260.1914,268.3711)"><path
         d="M 0,0 0.45,-1.125 -3.19,-2.607 -3.64,-1.481 0,0 Z"
         style="fill:#004862;fill-opacity:1;fill-rule:nonzero;stroke:none"
         id="path176"
         inkscape:connector-curvature="0" /></g><g
       id="g178"
       transform="translate(266.5898,270.9453)"><path
         d="M 0,0 0.439,-1.098 -3.123,-2.547 -3.563,-1.449 0,0 Z"
         style="fill:#004862;fill-opacity:1;fill-rule:nonzero;stroke:none"
         id="path180"
         inkscape:connector-curvature="0" /></g><g
       id="g182"
       transform="translate(272.9102,273.4883)"><path
         d="M 0,0 0.428,-1.07 -3.056,-2.488 -3.484,-1.418 0,0 Z"
         style="fill:#004862;fill-opacity:1;fill-rule:nonzero;stroke:none"
         id="path184"
         inkscape:connector-curvature="0" /></g><g
       id="g186"
       transform="translate(279.1523,275.999)"><path
         d="M 0,0 0.417,-1.042 -2.989,-2.429 -3.406,-1.387 0,0 Z"
         style="fill:#004862;fill-opacity:1;fill-rule:nonzero;stroke:none"
         id="path188"
         inkscape:connector-curvature="0" /></g><g
       id="g190"
       transform="translate(285.3164,278.4785)"><path
         d="M 0,0 0.407,-1.015 -2.922,-2.369 -3.328,-1.355 0,0 Z"
         style="fill:#004862;fill-opacity:1;fill-rule:nonzero;stroke:none"
         id="path192"
         inkscape:connector-curvature="0" /></g><g
       id="g194"
       transform="translate(291.4023,280.9258)"><path
         d="M 0,0 0.396,-0.986 -2.854,-2.31 -3.25,-1.322 0,0 Z"
         style="fill:#004862;fill-opacity:1;fill-rule:nonzero;stroke:none"
         id="path196"
         inkscape:connector-curvature="0" /></g><g
       id="g198"
       transform="translate(297.4111,283.3418)"><path
         d="M 0,0 0.385,-0.959 -2.788,-2.25 -3.172,-1.291 0,0 Z"
         style="fill:#004862;fill-opacity:1;fill-rule:nonzero;stroke:none"
         id="path200"
         inkscape:connector-curvature="0" /></g><g
       id="g202"
       transform="translate(303.3418,285.7266)"><path
         d="M 0,0 0.374,-0.932 -2.721,-2.19 -3.095,-1.26 0,0 Z"
         style="fill:#004862;fill-opacity:1;fill-rule:nonzero;stroke:none"
         id="path204"
         inkscape:connector-curvature="0" /></g><g
       id="g206"
       transform="translate(309.1943,288.0791)"><path
         d="M 0,0 0.363,-0.903 -2.654,-2.131 -3.017,-1.228 0,0 Z"
         style="fill:#004862;fill-opacity:1;fill-rule:nonzero;stroke:none"
         id="path208"
         inkscape:connector-curvature="0" /></g><g
       id="g210"
       transform="translate(314.9687,290.4004)"><path
         d="M 0,0 0.352,-0.875 -2.586,-2.071 -2.938,-1.195 0,0 Z"
         style="fill:#004862;fill-opacity:1;fill-rule:nonzero;stroke:none"
         id="path212"
         inkscape:connector-curvature="0" /></g><g
       id="g214"
       transform="translate(320.665,292.6904)"><path
         d="M 0,0 0.341,-0.848 -2.519,-2.012 -2.86,-1.164 0,0 Z"
         style="fill:#004862;fill-opacity:1;fill-rule:nonzero;stroke:none"
         id="path216"
         inkscape:connector-curvature="0" /></g><g
       id="g218"
       transform="translate(326.2837,294.9482)"><path
         d="m 0,0 0.33,-0.82 -2.782,-1.132 -0.33,0.82 L 0,0 Z"
         style="fill:#004862;fill-opacity:1;fill-rule:nonzero;stroke:none"
         id="path220"
         inkscape:connector-curvature="0" /></g><g
       id="g222"
       transform="translate(331.8247,297.1748)"><path
         d="M 0,0 0.319,-0.792 -2.385,-1.894 -2.705,-1.101 0,0 Z"
         style="fill:#004862;fill-opacity:1;fill-rule:nonzero;stroke:none"
         id="path224"
         inkscape:connector-curvature="0" /></g><g
       id="g226"
       transform="translate(337.2876,299.3691)"><path
         d="M 0,0 0.309,-0.765 -2.318,-1.833 -2.626,-1.068 0,0 Z"
         style="fill:#004862;fill-opacity:1;fill-rule:nonzero;stroke:none"
         id="path228"
         inkscape:connector-curvature="0" /></g><g
       id="g230"
       transform="translate(342.6724,301.5322)"><path
         d="M 0,0 0.298,-0.736 -2.251,-1.773 -2.549,-1.037 0,0 Z"
         style="fill:#004862;fill-opacity:1;fill-rule:nonzero;stroke:none"
         id="path232"
         inkscape:connector-curvature="0" /></g><g
       id="g234"
       transform="translate(347.979,303.6641)"><path
         d="M 0,0 0.287,-0.709 -2.184,-1.715 -2.47,-1.006 0,0 Z"
         style="fill:#004862;fill-opacity:1;fill-rule:nonzero;stroke:none"
         id="path236"
         inkscape:connector-curvature="0" /></g><g
       id="g238"
       transform="translate(353.2085,305.7637)"><path
         d="M 0,0 0.275,-0.681 -2.117,-1.654 -2.393,-0.974 0,0 Z"
         style="fill:#004862;fill-opacity:1;fill-rule:nonzero;stroke:none"
         id="path240"
         inkscape:connector-curvature="0" /></g><g
       id="g242"
       transform="translate(358.3589,307.832)"><path
         d="M 0,0 0.265,-0.653 -2.05,-1.596 -2.314,-0.941 0,0 Z"
         style="fill:#004862;fill-opacity:1;fill-rule:nonzero;stroke:none"
         id="path244"
         inkscape:connector-curvature="0" /></g><g
       id="g246"
       transform="translate(363.4321,309.8691)"><path
         d="M 0,0 0.254,-0.626 -1.982,-1.536 -2.236,-0.91 0,0 Z"
         style="fill:#004862;fill-opacity:1;fill-rule:nonzero;stroke:none"
         id="path248"
         inkscape:connector-curvature="0" /></g><g
       id="g250"
       transform="translate(368.4272,311.874)"><path
         d="M 0,0 0.242,-0.599 -1.915,-1.477 -2.158,-0.879 0,0 Z"
         style="fill:#004862;fill-opacity:1;fill-rule:nonzero;stroke:none"
         id="path252"
         inkscape:connector-curvature="0" /></g><g
       id="g254"
       transform="translate(373.3442,313.8477)"><path
         d="M 0,0 0.232,-0.57 -1.849,-1.417 -2.08,-0.848 0,0 Z"
         style="fill:#004862;fill-opacity:1;fill-rule:nonzero;stroke:none"
         id="path256"
         inkscape:connector-curvature="0" /></g><g
       id="g258"
       transform="translate(378.1831,315.7891)"><path
         d="M 0,0 0.222,-0.543 -1.781,-1.357 -2.002,-0.814 0,0 Z"
         style="fill:#004862;fill-opacity:1;fill-rule:nonzero;stroke:none"
         id="path260"
         inkscape:connector-curvature="0" /></g><g
       id="g262"
       transform="translate(382.9448,317.6992)"><path
         d="M 0,0 0.21,-0.515 -1.714,-1.298 -1.925,-0.783 0,0 Z"
         style="fill:#004862;fill-opacity:1;fill-rule:nonzero;stroke:none"
         id="path264"
         inkscape:connector-curvature="0" /></g><g
       id="g266"
       transform="translate(387.6279,319.5781)"><path
         d="M 0,0 0.199,-0.487 -1.647,-1.238 -1.846,-0.752 0,0 Z"
         style="fill:#004862;fill-opacity:1;fill-rule:nonzero;stroke:none"
         id="path268"
         inkscape:connector-curvature="0" /></g><g
       id="g270"
       transform="translate(392.2334,321.4238)"><path
         d="M 0,0 0.188,-0.458 -1.58,-1.178 -1.769,-0.719 0,0 Z"
         style="fill:#004862;fill-opacity:1;fill-rule:nonzero;stroke:none"
         id="path272"
         inkscape:connector-curvature="0" /></g><g
       id="g274"
       transform="translate(396.7607,323.2402)"><path
         d="M 0,0 0.177,-0.432 -1.513,-1.119 -1.69,-0.688 0,0 Z"
         style="fill:#004862;fill-opacity:1;fill-rule:nonzero;stroke:none"
         id="path276"
         inkscape:connector-curvature="0" /></g><g
       id="g278"
       transform="translate(401.21,325.0234)"><path
         d="M 0,0 0.167,-0.403 -1.445,-1.06 -1.612,-0.656 0,0 Z"
         style="fill:#004862;fill-opacity:1;fill-rule:nonzero;stroke:none"
         id="path280"
         inkscape:connector-curvature="0" /></g><g
       id="g282"
       transform="translate(405.582,326.7754)"><path
         d="M 0,0 0.155,-0.376 -1.379,-1 -1.535,-0.624 0,0 Z"
         style="fill:#004862;fill-opacity:1;fill-rule:nonzero;stroke:none"
         id="path284"
         inkscape:connector-curvature="0" /></g><g
       id="g286"
       transform="translate(409.875,328.4961)"><path
         d="M 0,0 0.145,-0.348 -1.312,-0.94 -1.456,-0.593 0,0 Z"
         style="fill:#004862;fill-opacity:1;fill-rule:nonzero;stroke:none"
         id="path288"
         inkscape:connector-curvature="0" /></g><g
       id="g290"
       transform="translate(414.0869,329.2812)"><path
         d="M 0,0 C -0.56,-0.516 -1.427,-0.512 -1.97,0.031 -2.513,0.574 -2.517,1.441 -2.001,2 l -0.6,0.6 c -0.89,-0.89 -0.89,-2.334 0,-3.225 0.892,-0.891 2.336,-0.891 3.226,0 L 0,0 Z"
         style="fill:#ffffff;fill-opacity:1;fill-rule:nonzero;stroke:none"
         id="path292"
         inkscape:connector-curvature="0" /></g><g
       id="g294"
       transform="translate(426.3984,331.8809)"><path
         d="m 0,0 -0.599,-0.599 c 0.515,-0.559 0.511,-1.427 -0.032,-1.969 -0.543,-0.543 -1.41,-0.547 -1.971,-0.032 l -0.625,-0.625 c 0.891,-0.89 2.335,-0.89 3.227,0 C 0.891,-2.334 0.891,-0.89 0,0"
         style="fill:#ffffff;fill-opacity:1;fill-rule:nonzero;stroke:none"
         id="path296"
         inkscape:connector-curvature="0" /></g><g
       id="g298"
       transform="translate(355.1357,249.71)"><path
         d="m 0,0 c 0,4.643 -1.811,8.408 -4.369,8.408 l -2.035,0 c -2.559,0 -4.37,-3.765 -4.37,-8.408 l 0,-3.346 c 0,-4.642 1.791,-8.406 4.349,-8.406 l 2.064,0 c 3.262,0 4.361,3.764 4.361,8.406 L 0,0 Z m 10.45,-4.83 c 0,-8.77 -3.609,-15.881 -14.224,-15.881 l -3.224,0 c -8.33,0 -14.225,7.111 -14.225,15.881 l 0,6.316 c 0,8.772 5.895,15.881 14.225,15.881 l 3.224,0 c 8.329,0 14.224,-7.109 14.224,-15.881 l 0,-6.316 z"
         style="fill:#004862;fill-opacity:1;fill-rule:nonzero;stroke:none"
         id="path300"
         inkscape:connector-curvature="0" /></g><g
       id="g302"
       transform="translate(279.0566,246.3643)"><path
         d="m 0,0 c 0,-4.643 -1.635,-8.406 -4.897,-8.406 l -5.282,0 0,0.013 -2.117,0 0,20.145 4.891,0 0,0.002 3.035,0 C -1.811,11.754 0,7.988 0,3.346 L 0,0 Z m -3.776,20.713 -3.629,0 0,0.006 -16.98,0 0,-8.967 2.928,0 0,-20.145 -2.928,0 0,-8.972 12.035,0 2.171,0 6.403,0 c 10.616,0 14.224,7.111 14.224,15.881 l 0,6.316 c 0,8.772 -5.894,15.881 -14.224,15.881"
         style="fill:#004862;fill-opacity:1;fill-rule:nonzero;stroke:none"
         id="path304"
         inkscape:connector-curvature="0" /></g><g
       id="g306"
       transform="translate(580.0762,246.3643)"><path
         d="m 0,0 c 0,-4.643 -1.637,-8.406 -4.897,-8.406 l -3.23,0 0,0.013 -2.119,0 0,20.145 4.892,0 0,0.002 0.985,0 C -1.811,11.754 0,7.988 0,3.346 L 0,0 Z m -3.775,20.713 -1.579,0 0,0.006 -16.979,0 0,-8.967 2.927,0 0,-20.145 -2.927,0 0,-8.972 9.985,0 4.221,0 4.352,0 c 10.616,0 14.225,7.111 14.225,15.881 l 0,6.316 c 0,8.772 -5.895,15.881 -14.225,15.881"
         style="fill:#004862;fill-opacity:1;fill-rule:nonzero;stroke:none"
         id="path308"
         inkscape:connector-curvature="0" /></g><g
       id="g310"
       transform="translate(408.1855,267.0732)"><path
         d="m 0,0 -14.207,0 0,-8.957 4.537,0 0,-12.29 -9.697,21.245 -16.982,0 0,-8.955 2.927,0 0,-20.145 -2.927,0 0,-8.998 14.208,0 0,8.998 -4.538,0 0,13.987 10.446,-22.955 13.305,0 0,29.113 2.928,0 L 0,0 Z"
         style="fill:#004862;fill-opacity:1;fill-rule:nonzero;stroke:none"
         id="path312"
         inkscape:connector-curvature="0" /></g><g
       id="g314"
       transform="translate(438.8799,267.0791)"><path
         d="m 0,0 -24.518,0 0,-8.955 2.81,0 0,-20.17 -2.81,0 0,-8.955 24.518,0 7.278,0 0,8.955 0,2.822 -7.278,0 0,-2.822 -12.399,0 0,5.68 10.912,0 0,8.808 -10.912,0 0,5.682 12.399,0 0,-2.824 7.278,0 0,2.824 L 7.278,0 0,0 Z"
         style="fill:#004862;fill-opacity:1;fill-rule:nonzero;stroke:none"
         id="path316"
         inkscape:connector-curvature="0" /></g><g
       id="g318"
       transform="translate(477.0762,240.3643)"><path
         d="m 0,0 c 0,-1.328 -1.238,-2.408 -2.76,-2.408 l -3.75,0 0,6.179 3.75,0 C -1.238,3.771 0,2.691 0,1.363 L 0,0 Z m -1.161,15.34 0,-1.365 c 0,-1.327 -1.237,-2.409 -2.758,-2.409 l -2.591,0 0,6.182 2.591,0 c 1.521,0 2.758,-1.082 2.758,-2.408 M 7.103,8.276 c 1.262,1.559 2.004,3.476 2.004,5.699 l 0,1.365 c 0,6.281 -5.835,11.375 -13.026,11.375 l -3.452,0 -7.721,0 -3.512,0 0,-8.953 2.934,0 0,-21.309 -2.934,0 0,-7.828 6.985,0 7.154,0 1.705,0 c 7.194,0 13.025,5.094 13.025,11.375 l 0,1.363 c 0,2.836 -1.197,5.184 -3.162,6.913"
         style="fill:#004862;fill-opacity:1;fill-rule:nonzero;stroke:none"
         id="path320"
         inkscape:connector-curvature="0" /></g><g
       id="g322"
       transform="translate(507.9453,258.1162)"><path
         d="m 0,0 0,8.967 -14.82,0 0,-8.967 2.829,0 0,-20.105 -2.829,0 0,-8.967 14.82,0 0,8.967 -2.83,0 L -2.83,0 0,0 Z"
         style="fill:#004862;fill-opacity:1;fill-rule:nonzero;stroke:none"
         id="path324"
         inkscape:connector-curvature="0" /></g><g
       id="g326"
       transform="translate(306.9331,257.4736)"><path
         d="m 0,0 7.434,0 0.835,0 c 2.43,0 3.084,-1.43 3.084,-2.207 l 0,-1.416 c 0,-0.777 -0.654,-2.205 -3.084,-2.205 L 0,-5.828 0,0 Z m 15.67,-12.964 c 3.204,2.158 5.277,5.535 5.277,9.341 l 0,1.416 c 0,6.518 -6.05,11.803 -13.513,11.803 l -2.548,0 0,0.013 -16.98,0 0,-8.966 2.932,0 0,-20.147 -2.932,0 0,-8.971 16.631,0 0,8.971 -4.537,0 0,4.08 5.423,0 4.6,-10.219 c 0.786,-1.746 2.522,-2.867 4.435,-2.816 l 11.425,0 c -5.794,3.884 -8.966,11.73 -10.213,15.495"
         style="fill:#004862;fill-opacity:1;fill-rule:nonzero;stroke:none"
         id="path328"
         inkscape:connector-curvature="0" /></g><g
       id="g330"
       transform="translate(527.9482,257.4736)"><path
         d="M 0,0 7.434,0 8.27,0 c 2.429,0 3.084,-1.43 3.084,-2.207 l 0,-1.416 c 0,-0.777 -0.655,-2.205 -3.084,-2.205 L 0,-5.828 0,0 Z m 15.67,-12.964 c 3.205,2.158 5.277,5.535 5.277,9.341 l 0,1.416 c 0,6.518 -6.05,11.803 -13.513,11.803 l -2.547,0 0,0.013 -16.981,0 0,-8.966 2.933,0 0,-20.147 -2.933,0 0,-8.971 16.631,0 0,8.971 -4.537,0 0,4.08 5.424,0 4.599,-10.219 c 0.787,-1.746 2.522,-2.816 4.436,-2.816 l 11.424,0 c -5.793,3.935 -8.966,11.73 -10.213,15.495"
         style="fill:#004862;fill-opacity:1;fill-rule:nonzero;stroke:none"
         id="path332"
         inkscape:connector-curvature="0" /></g></g></svg>